M48
;Layer_Color=9474304
;FILE_FORMAT=4:4
METRIC,LZ
;TYPE=PLATED
T1F00S00C1.0000
T2F00S00C3.0000
%
T01
X0032766Y0037164
X0046736Y0038989
Y0030989
X0059309Y0029972
X0061849
X0064389
X0063373Y0035687
Y0038227
X0071373
Y0035687
X0059055Y0033528
X0082931Y0034257
Y0036957
Y0031557
X0082804Y0043307
Y0052451
Y0055151
Y0057851
X0076454Y0058166
Y0050566
X0071373Y0050927
Y0048387
Y0045847
Y0043307
Y0040767
X0075204Y0043307
X0063373
Y0040767
X0059055Y0041128
X0059182Y004445
Y004845
X0063373Y0048387
Y0045847
Y0050927
X0056769Y0054991
X0051769
X0046769
X0045867Y0046455
X0053467
X0038989Y0046355
X0035433Y004701
X003175Y0049784
X002921
X0035433Y005461
X0038989Y0056155
X0032766Y0042164
T02
X0031623Y0029591
X0075565Y0033528
M30
