G04*
G04 #@! TF.GenerationSoftware,Altium Limited,Altium Designer,20.0.2 (26)*
G04*
G04 Layer_Color=65535*
%FSLAX44Y44*%
%MOMM*%
G71*
G01*
G75*
%ADD10C,0.2000*%
%ADD11C,0.2540*%
%ADD12C,0.1524*%
G36*
X526826Y611085D02*
X526943D01*
X527099Y611065D01*
X527411Y611007D01*
X527782Y610909D01*
X528153Y610792D01*
X528523Y610597D01*
X528855Y610343D01*
X528894Y610304D01*
X528991Y610207D01*
X529108Y610031D01*
X529264Y609797D01*
X529421Y609505D01*
X529538Y609173D01*
X529635Y608783D01*
X529674Y608354D01*
Y608315D01*
Y608217D01*
X529655Y608080D01*
X529635Y607885D01*
X529577Y607671D01*
X529518Y607437D01*
X529421Y607203D01*
X529304Y606969D01*
X529284Y606949D01*
X529226Y606871D01*
X529147Y606754D01*
X529030Y606617D01*
X528894Y606461D01*
X528718Y606305D01*
X528504Y606149D01*
X528270Y606013D01*
X528231Y605993D01*
X528133Y605954D01*
X527977Y605896D01*
X527762Y605818D01*
X527489Y605720D01*
X527158Y605623D01*
X526768Y605525D01*
X526319Y605428D01*
X526299D01*
X526241Y605408D01*
X526163Y605388D01*
X526046Y605369D01*
X525890Y605350D01*
X525734Y605310D01*
X525363Y605232D01*
X524973Y605135D01*
X524583Y605037D01*
X524212Y604940D01*
X524056Y604881D01*
X523919Y604823D01*
Y604589D01*
Y604550D01*
Y604472D01*
X523939Y604355D01*
X523959Y604198D01*
X523997Y604023D01*
X524076Y603867D01*
X524154Y603711D01*
X524271Y603574D01*
X524290Y603555D01*
X524349Y603516D01*
X524427Y603477D01*
X524563Y603418D01*
X524739Y603360D01*
X524973Y603301D01*
X525266Y603282D01*
X525597Y603262D01*
X525714D01*
X525831Y603282D01*
X525968Y603301D01*
X526319Y603379D01*
X526475Y603438D01*
X526631Y603535D01*
X526651Y603555D01*
X526689Y603594D01*
X526768Y603652D01*
X526846Y603750D01*
X526943Y603867D01*
X527041Y604023D01*
X527138Y604218D01*
X527216Y604433D01*
X529421Y604023D01*
Y604003D01*
X529401Y603965D01*
X529381Y603886D01*
X529342Y603808D01*
X529245Y603574D01*
X529128Y603282D01*
X528952Y602950D01*
X528718Y602638D01*
X528445Y602326D01*
X528133Y602053D01*
X528114D01*
X528094Y602033D01*
X528036Y601994D01*
X527957Y601955D01*
X527860Y601897D01*
X527743Y601838D01*
X527606Y601780D01*
X527450Y601721D01*
X527275Y601663D01*
X527060Y601604D01*
X526846Y601546D01*
X526592Y601487D01*
X526338Y601448D01*
X526046Y601409D01*
X525753Y601390D01*
X525149D01*
X525012Y601409D01*
X524856D01*
X524485Y601428D01*
X524095Y601487D01*
X523685Y601546D01*
X523295Y601643D01*
X523120Y601702D01*
X522964Y601780D01*
X522925Y601799D01*
X522827Y601858D01*
X522691Y601936D01*
X522515Y602053D01*
X522339Y602189D01*
X522144Y602365D01*
X521969Y602560D01*
X521832Y602775D01*
X521813Y602794D01*
X521774Y602892D01*
X521735Y603048D01*
X521657Y603282D01*
X521637Y603418D01*
X521598Y603574D01*
X521579Y603750D01*
X521559Y603965D01*
X521540Y604179D01*
X521520Y604433D01*
X521501Y604686D01*
Y604979D01*
X521540Y607827D01*
Y607846D01*
Y607885D01*
Y607944D01*
Y608022D01*
Y608237D01*
X521520Y608510D01*
Y608802D01*
X521481Y609114D01*
X521462Y609388D01*
X521423Y609641D01*
Y609661D01*
X521403Y609739D01*
X521364Y609856D01*
X521325Y610012D01*
X521267Y610187D01*
X521189Y610402D01*
X521091Y610616D01*
X520974Y610870D01*
X523393D01*
Y610850D01*
X523412Y610831D01*
X523432Y610773D01*
X523451Y610694D01*
X523490Y610597D01*
X523549Y610480D01*
X523588Y610324D01*
X523646Y610168D01*
Y610148D01*
Y610129D01*
X523685Y610051D01*
X523705Y609953D01*
X523724Y609875D01*
X523744Y609895D01*
X523842Y609973D01*
X523959Y610090D01*
X524134Y610226D01*
X524329Y610382D01*
X524563Y610538D01*
X524797Y610675D01*
X525070Y610812D01*
X525109Y610831D01*
X525187Y610850D01*
X525344Y610909D01*
X525539Y610948D01*
X525753Y611007D01*
X526007Y611065D01*
X526299Y611085D01*
X526592Y611104D01*
X526729D01*
X526826Y611085D01*
D02*
G37*
G36*
X504900D02*
X505056D01*
X505251Y611065D01*
X505446Y611046D01*
X505680Y611007D01*
X506148Y610909D01*
X506656Y610792D01*
X507143Y610597D01*
X507592Y610343D01*
X507612D01*
X507631Y610304D01*
X507690Y610265D01*
X507767Y610207D01*
X507963Y610031D01*
X508177Y609797D01*
X508411Y609505D01*
X508645Y609134D01*
X508860Y608724D01*
X509016Y608256D01*
X506558Y607885D01*
Y607924D01*
X506519Y608002D01*
X506480Y608139D01*
X506422Y608295D01*
X506343Y608471D01*
X506227Y608646D01*
X506090Y608822D01*
X505934Y608978D01*
X505914Y608997D01*
X505836Y609036D01*
X505739Y609095D01*
X505583Y609153D01*
X505388Y609212D01*
X505154Y609270D01*
X504900Y609309D01*
X504588Y609329D01*
X504432D01*
X504256Y609309D01*
X504061Y609290D01*
X503827Y609251D01*
X503593Y609192D01*
X503359Y609114D01*
X503164Y608997D01*
X503144Y608978D01*
X503105Y608958D01*
X503066Y608900D01*
X502988Y608822D01*
X502891Y608607D01*
X502852Y608471D01*
X502832Y608334D01*
Y608315D01*
Y608275D01*
X502852Y608158D01*
X502910Y608022D01*
X503008Y607866D01*
X503047Y607827D01*
X503105Y607807D01*
X503183Y607749D01*
X503300Y607710D01*
X503437Y607651D01*
X503632Y607593D01*
X503847Y607534D01*
X503886D01*
X503983Y607495D01*
X504120Y607476D01*
X504315Y607417D01*
X504549Y607359D01*
X504822Y607300D01*
X505115Y607222D01*
X505427Y607144D01*
X506070Y606969D01*
X506382Y606871D01*
X506695Y606754D01*
X506968Y606656D01*
X507221Y606559D01*
X507436Y606442D01*
X507612Y606344D01*
X507631D01*
X507650Y606305D01*
X507787Y606208D01*
X507963Y606032D01*
X508158Y605798D01*
X508353Y605505D01*
X508528Y605135D01*
X508665Y604725D01*
X508684Y604491D01*
X508704Y604257D01*
Y604238D01*
Y604198D01*
Y604140D01*
X508684Y604062D01*
X508645Y603828D01*
X508587Y603555D01*
X508470Y603223D01*
X508314Y602892D01*
X508080Y602540D01*
X507924Y602384D01*
X507767Y602228D01*
X507748Y602209D01*
X507729Y602189D01*
X507670Y602150D01*
X507592Y602092D01*
X507475Y602033D01*
X507358Y601955D01*
X507202Y601877D01*
X507046Y601799D01*
X506851Y601721D01*
X506617Y601663D01*
X506382Y601585D01*
X506109Y601526D01*
X505817Y601468D01*
X505505Y601428D01*
X505173Y601390D01*
X504490D01*
X504334Y601409D01*
X504139Y601428D01*
X503730Y601468D01*
X503281Y601546D01*
X502793Y601643D01*
X502364Y601799D01*
X502150Y601897D01*
X501974Y602014D01*
X501954D01*
X501935Y602033D01*
X501818Y602131D01*
X501662Y602267D01*
X501467Y602482D01*
X501252Y602735D01*
X501038Y603048D01*
X500843Y603399D01*
X500686Y603828D01*
X503008Y604257D01*
Y604238D01*
X503047Y604179D01*
X503086Y604081D01*
X503144Y603965D01*
X503222Y603828D01*
X503320Y603691D01*
X503437Y603555D01*
X503593Y603438D01*
X503613Y603418D01*
X503671Y603399D01*
X503769Y603340D01*
X503886Y603282D01*
X504061Y603243D01*
X504256Y603184D01*
X504490Y603165D01*
X504763Y603145D01*
X504920D01*
X505095Y603165D01*
X505310Y603184D01*
X505758Y603262D01*
X505973Y603321D01*
X506148Y603418D01*
X506168D01*
X506188Y603457D01*
X506285Y603555D01*
X506382Y603711D01*
X506402Y603808D01*
X506422Y603925D01*
Y603945D01*
Y603965D01*
X506382Y604081D01*
X506324Y604238D01*
X506265Y604296D01*
X506188Y604374D01*
X506168Y604394D01*
X506109Y604413D01*
X505973Y604472D01*
X505895Y604511D01*
X505778Y604550D01*
X505641Y604608D01*
X505485Y604647D01*
X505290Y604706D01*
X505075Y604784D01*
X504841Y604842D01*
X504568Y604920D01*
X504256Y604998D01*
X503905Y605076D01*
X503886D01*
X503827Y605096D01*
X503710Y605115D01*
X503593Y605154D01*
X503417Y605193D01*
X503242Y605252D01*
X502813Y605369D01*
X502364Y605525D01*
X501915Y605720D01*
X501506Y605935D01*
X501311Y606052D01*
X501155Y606169D01*
X501116Y606208D01*
X501038Y606286D01*
X500901Y606442D01*
X500765Y606637D01*
X500628Y606890D01*
X500491Y607222D01*
X500413Y607573D01*
X500374Y608002D01*
Y608022D01*
Y608061D01*
Y608120D01*
X500394Y608217D01*
X500413Y608315D01*
X500433Y608451D01*
X500511Y608744D01*
X500628Y609095D01*
X500823Y609465D01*
X500940Y609641D01*
X501096Y609836D01*
X501252Y610012D01*
X501447Y610187D01*
X501467D01*
X501486Y610226D01*
X501564Y610265D01*
X501642Y610324D01*
X501759Y610402D01*
X501896Y610480D01*
X502052Y610558D01*
X502228Y610636D01*
X502442Y610733D01*
X502676Y610812D01*
X502930Y610890D01*
X503222Y610967D01*
X503515Y611026D01*
X503847Y611065D01*
X504217Y611085D01*
X504588Y611104D01*
X504763D01*
X504900Y611085D01*
D02*
G37*
G36*
X590751D02*
X590868D01*
X591024Y611065D01*
X591356Y611007D01*
X591746Y610909D01*
X592156Y610773D01*
X592565Y610577D01*
X592936Y610304D01*
Y610285D01*
X592975Y610265D01*
X593092Y610148D01*
X593248Y609973D01*
X593424Y609700D01*
X593619Y609368D01*
X593814Y608958D01*
X593989Y608471D01*
X594106Y607924D01*
X591726Y607651D01*
Y607690D01*
X591707Y607768D01*
X591688Y607905D01*
X591648Y608061D01*
X591590Y608237D01*
X591512Y608432D01*
X591414Y608588D01*
X591297Y608744D01*
X591278Y608763D01*
X591239Y608802D01*
X591141Y608841D01*
X591044Y608900D01*
X590888Y608978D01*
X590732Y609017D01*
X590537Y609056D01*
X590322Y609075D01*
X590283D01*
X590186Y609056D01*
X590049Y609036D01*
X589873Y608997D01*
X589678Y608900D01*
X589464Y608783D01*
X589249Y608627D01*
X589035Y608393D01*
X589015Y608354D01*
X588976Y608315D01*
X588956Y608256D01*
X588898Y608158D01*
X588859Y608061D01*
X588800Y607924D01*
X588742Y607768D01*
X588703Y607573D01*
X588644Y607378D01*
X588586Y607144D01*
X588527Y606871D01*
X588469Y606578D01*
X588430Y606247D01*
X588391Y605876D01*
X588352Y605486D01*
X588371Y605505D01*
X588391Y605525D01*
X588449Y605583D01*
X588527Y605662D01*
X588722Y605818D01*
X588996Y606013D01*
X589327Y606227D01*
X589717Y606383D01*
X590166Y606520D01*
X590420Y606539D01*
X590673Y606559D01*
X590810D01*
X590927Y606539D01*
X591063Y606520D01*
X591200Y606500D01*
X591551Y606422D01*
X591961Y606286D01*
X592175Y606188D01*
X592409Y606071D01*
X592624Y605935D01*
X592838Y605779D01*
X593053Y605603D01*
X593268Y605408D01*
X593287Y605388D01*
X593307Y605350D01*
X593365Y605291D01*
X593443Y605193D01*
X593521Y605076D01*
X593619Y604940D01*
X593716Y604784D01*
X593814Y604589D01*
X593911Y604374D01*
X594009Y604160D01*
X594106Y603906D01*
X594184Y603633D01*
X594321Y603028D01*
X594341Y602716D01*
X594360Y602365D01*
Y602345D01*
Y602287D01*
Y602170D01*
X594341Y602033D01*
X594321Y601877D01*
X594301Y601682D01*
X594263Y601468D01*
X594223Y601233D01*
X594087Y600746D01*
X593989Y600473D01*
X593872Y600219D01*
X593736Y599946D01*
X593580Y599692D01*
X593404Y599458D01*
X593209Y599224D01*
X593190Y599205D01*
X593151Y599166D01*
X593092Y599107D01*
X592994Y599029D01*
X592878Y598951D01*
X592741Y598834D01*
X592585Y598736D01*
X592409Y598619D01*
X592214Y598502D01*
X591980Y598405D01*
X591746Y598288D01*
X591473Y598210D01*
X591200Y598132D01*
X590907Y598073D01*
X590595Y598034D01*
X590263Y598015D01*
X590068D01*
X589932Y598034D01*
X589776Y598054D01*
X589581Y598093D01*
X589366Y598151D01*
X589132Y598210D01*
X588879Y598288D01*
X588625Y598385D01*
X588352Y598502D01*
X588098Y598658D01*
X587825Y598834D01*
X587552Y599029D01*
X587298Y599263D01*
X587064Y599536D01*
X587045Y599556D01*
X587006Y599614D01*
X586947Y599692D01*
X586869Y599829D01*
X586772Y599985D01*
X586674Y600200D01*
X586557Y600434D01*
X586440Y600726D01*
X586323Y601038D01*
X586206Y601409D01*
X586109Y601819D01*
X586011Y602267D01*
X585933Y602755D01*
X585874Y603282D01*
X585835Y603867D01*
X585816Y604491D01*
Y604530D01*
Y604647D01*
Y604823D01*
X585835Y605057D01*
X585855Y605350D01*
X585894Y605681D01*
X585933Y606052D01*
X585972Y606442D01*
X586128Y607281D01*
X586245Y607690D01*
X586362Y608120D01*
X586518Y608510D01*
X586694Y608900D01*
X586889Y609251D01*
X587123Y609563D01*
X587142Y609582D01*
X587181Y609622D01*
X587259Y609700D01*
X587357Y609797D01*
X587494Y609914D01*
X587649Y610051D01*
X587825Y610187D01*
X588040Y610324D01*
X588274Y610480D01*
X588527Y610616D01*
X588800Y610753D01*
X589093Y610870D01*
X589425Y610967D01*
X589756Y611046D01*
X590127Y611085D01*
X590498Y611104D01*
X590634D01*
X590751Y611085D01*
D02*
G37*
G36*
X558954D02*
X559072D01*
X559227Y611065D01*
X559559Y611007D01*
X559949Y610909D01*
X560359Y610773D01*
X560769Y610577D01*
X561139Y610304D01*
Y610285D01*
X561178Y610265D01*
X561295Y610148D01*
X561451Y609973D01*
X561627Y609700D01*
X561822Y609368D01*
X562017Y608958D01*
X562193Y608471D01*
X562310Y607924D01*
X559930Y607651D01*
Y607690D01*
X559910Y607768D01*
X559891Y607905D01*
X559852Y608061D01*
X559793Y608237D01*
X559715Y608432D01*
X559618Y608588D01*
X559501Y608744D01*
X559481Y608763D01*
X559442Y608802D01*
X559345Y608841D01*
X559247Y608900D01*
X559091Y608978D01*
X558935Y609017D01*
X558740Y609056D01*
X558525Y609075D01*
X558486D01*
X558389Y609056D01*
X558252Y609036D01*
X558077Y608997D01*
X557882Y608900D01*
X557667Y608783D01*
X557452Y608627D01*
X557238Y608393D01*
X557218Y608354D01*
X557179Y608315D01*
X557160Y608256D01*
X557101Y608158D01*
X557062Y608061D01*
X557004Y607924D01*
X556945Y607768D01*
X556906Y607573D01*
X556848Y607378D01*
X556789Y607144D01*
X556731Y606871D01*
X556672Y606578D01*
X556633Y606247D01*
X556594Y605876D01*
X556555Y605486D01*
X556575Y605505D01*
X556594Y605525D01*
X556653Y605583D01*
X556731Y605662D01*
X556926Y605818D01*
X557199Y606013D01*
X557530Y606227D01*
X557921Y606383D01*
X558369Y606520D01*
X558623Y606539D01*
X558876Y606559D01*
X559013D01*
X559130Y606539D01*
X559267Y606520D01*
X559403Y606500D01*
X559754Y606422D01*
X560164Y606286D01*
X560378Y606188D01*
X560612Y606071D01*
X560827Y605935D01*
X561042Y605779D01*
X561256Y605603D01*
X561471Y605408D01*
X561490Y605388D01*
X561510Y605350D01*
X561568Y605291D01*
X561646Y605193D01*
X561725Y605076D01*
X561822Y604940D01*
X561920Y604784D01*
X562017Y604589D01*
X562115Y604374D01*
X562212Y604160D01*
X562310Y603906D01*
X562388Y603633D01*
X562524Y603028D01*
X562544Y602716D01*
X562563Y602365D01*
Y602345D01*
Y602287D01*
Y602170D01*
X562544Y602033D01*
X562524Y601877D01*
X562505Y601682D01*
X562466Y601468D01*
X562427Y601233D01*
X562290Y600746D01*
X562193Y600473D01*
X562076Y600219D01*
X561939Y599946D01*
X561783Y599692D01*
X561607Y599458D01*
X561412Y599224D01*
X561393Y599205D01*
X561354Y599166D01*
X561295Y599107D01*
X561198Y599029D01*
X561081Y598951D01*
X560944Y598834D01*
X560788Y598736D01*
X560612Y598619D01*
X560418Y598502D01*
X560183Y598405D01*
X559949Y598288D01*
X559676Y598210D01*
X559403Y598132D01*
X559110Y598073D01*
X558798Y598034D01*
X558467Y598015D01*
X558272D01*
X558135Y598034D01*
X557979Y598054D01*
X557784Y598093D01*
X557569Y598151D01*
X557335Y598210D01*
X557082Y598288D01*
X556828Y598385D01*
X556555Y598502D01*
X556301Y598658D01*
X556028Y598834D01*
X555755Y599029D01*
X555502Y599263D01*
X555268Y599536D01*
X555248Y599556D01*
X555209Y599614D01*
X555150Y599692D01*
X555073Y599829D01*
X554975Y599985D01*
X554877Y600200D01*
X554760Y600434D01*
X554643Y600726D01*
X554526Y601038D01*
X554409Y601409D01*
X554312Y601819D01*
X554214Y602267D01*
X554136Y602755D01*
X554078Y603282D01*
X554039Y603867D01*
X554019Y604491D01*
Y604530D01*
Y604647D01*
Y604823D01*
X554039Y605057D01*
X554058Y605350D01*
X554097Y605681D01*
X554136Y606052D01*
X554175Y606442D01*
X554331Y607281D01*
X554448Y607690D01*
X554565Y608120D01*
X554721Y608510D01*
X554897Y608900D01*
X555092Y609251D01*
X555326Y609563D01*
X555346Y609582D01*
X555385Y609622D01*
X555463Y609700D01*
X555560Y609797D01*
X555697Y609914D01*
X555853Y610051D01*
X556028Y610187D01*
X556243Y610324D01*
X556477Y610480D01*
X556731Y610616D01*
X557004Y610753D01*
X557296Y610870D01*
X557628Y610967D01*
X557960Y611046D01*
X558330Y611085D01*
X558701Y611104D01*
X558837D01*
X558954Y611085D01*
D02*
G37*
G36*
X583982Y604998D02*
X579164D01*
Y607456D01*
X583982D01*
Y604998D01*
D02*
G37*
G36*
X568084D02*
X563265D01*
Y607456D01*
X568084D01*
Y604998D01*
D02*
G37*
G36*
X536111Y601585D02*
X533829D01*
Y602892D01*
X533810Y602872D01*
X533732Y602755D01*
X533615Y602599D01*
X533478Y602404D01*
X533322Y602189D01*
X533146Y601994D01*
X532951Y601819D01*
X532776Y601682D01*
X532756Y601663D01*
X532698Y601643D01*
X532600Y601585D01*
X532464Y601526D01*
X532308Y601487D01*
X532132Y601428D01*
X531937Y601409D01*
X531722Y601390D01*
X531586D01*
X531410Y601409D01*
X531196Y601448D01*
X530962Y601507D01*
X530669Y601585D01*
X530376Y601702D01*
X530084Y601858D01*
X530845Y604003D01*
X530864Y603984D01*
X530942Y603945D01*
X531079Y603867D01*
X531215Y603789D01*
X531410Y603730D01*
X531605Y603652D01*
X531800Y603613D01*
X532015Y603594D01*
X532093D01*
X532191Y603613D01*
X532308Y603633D01*
X532444Y603672D01*
X532600Y603711D01*
X532756Y603789D01*
X532893Y603886D01*
X532912Y603906D01*
X532951Y603945D01*
X533010Y604023D01*
X533088Y604120D01*
X533185Y604257D01*
X533283Y604452D01*
X533381Y604667D01*
X533459Y604920D01*
Y604959D01*
X533478Y604998D01*
X533498Y605076D01*
Y605154D01*
X533517Y605271D01*
X533537Y605428D01*
X533556Y605583D01*
X533576Y605779D01*
X533595Y605993D01*
X533615Y606247D01*
Y606539D01*
X533634Y606852D01*
X533654Y607203D01*
Y607593D01*
Y608022D01*
Y610870D01*
X536111D01*
Y601585D01*
D02*
G37*
G36*
X481452D02*
X479170D01*
Y602892D01*
X479151Y602872D01*
X479072Y602755D01*
X478955Y602599D01*
X478819Y602404D01*
X478663Y602189D01*
X478487Y601994D01*
X478292Y601819D01*
X478117Y601682D01*
X478097Y601663D01*
X478039Y601643D01*
X477941Y601585D01*
X477804Y601526D01*
X477648Y601487D01*
X477473Y601428D01*
X477278Y601409D01*
X477063Y601390D01*
X476927D01*
X476751Y601409D01*
X476536Y601448D01*
X476302Y601507D01*
X476010Y601585D01*
X475717Y601702D01*
X475425Y601858D01*
X476185Y604003D01*
X476205Y603984D01*
X476283Y603945D01*
X476419Y603867D01*
X476556Y603789D01*
X476751Y603730D01*
X476946Y603652D01*
X477141Y603613D01*
X477356Y603594D01*
X477434D01*
X477531Y603613D01*
X477648Y603633D01*
X477785Y603672D01*
X477941Y603711D01*
X478097Y603789D01*
X478234Y603886D01*
X478253Y603906D01*
X478292Y603945D01*
X478351Y604023D01*
X478429Y604120D01*
X478526Y604257D01*
X478624Y604452D01*
X478721Y604667D01*
X478799Y604920D01*
Y604959D01*
X478819Y604998D01*
X478838Y605076D01*
Y605154D01*
X478858Y605271D01*
X478877Y605428D01*
X478897Y605583D01*
X478916Y605779D01*
X478936Y605993D01*
X478955Y606247D01*
Y606539D01*
X478975Y606852D01*
X478994Y607203D01*
Y607593D01*
Y608022D01*
Y610870D01*
X481452D01*
Y601585D01*
D02*
G37*
G36*
X448641Y601585D02*
X446359D01*
Y602892D01*
X446339Y602872D01*
X446261Y602755D01*
X446144Y602599D01*
X446008Y602404D01*
X445852Y602189D01*
X445676Y601994D01*
X445481Y601819D01*
X445305Y601682D01*
X445286Y601663D01*
X445228Y601643D01*
X445130Y601585D01*
X444993Y601526D01*
X444837Y601487D01*
X444662Y601428D01*
X444467Y601409D01*
X444252Y601390D01*
X444115D01*
X443940Y601409D01*
X443725Y601448D01*
X443491Y601507D01*
X443199Y601585D01*
X442906Y601702D01*
X442613Y601858D01*
X443374Y604003D01*
X443394Y603984D01*
X443472Y603945D01*
X443608Y603867D01*
X443745Y603789D01*
X443940Y603730D01*
X444135Y603652D01*
X444330Y603613D01*
X444545Y603594D01*
X444623D01*
X444720Y603613D01*
X444837Y603633D01*
X444974Y603672D01*
X445130Y603711D01*
X445286Y603789D01*
X445423Y603886D01*
X445442Y603906D01*
X445481Y603945D01*
X445540Y604023D01*
X445618Y604120D01*
X445715Y604257D01*
X445813Y604452D01*
X445910Y604667D01*
X445988Y604920D01*
Y604959D01*
X446008Y604998D01*
X446027Y605076D01*
Y605154D01*
X446047Y605271D01*
X446066Y605428D01*
X446086Y605583D01*
X446105Y605779D01*
X446125Y605993D01*
X446144Y606247D01*
Y606539D01*
X446164Y606852D01*
X446183Y607203D01*
Y607593D01*
Y608022D01*
Y610870D01*
X448641D01*
Y601585D01*
D02*
G37*
G36*
X519121Y601585D02*
X516838D01*
Y602950D01*
X516819Y602931D01*
X516780Y602892D01*
X516721Y602813D01*
X516624Y602696D01*
X516507Y602579D01*
X516351Y602462D01*
X516195Y602306D01*
X516000Y602170D01*
X515785Y602033D01*
X515570Y601877D01*
X515317Y601760D01*
X515044Y601624D01*
X514751Y601526D01*
X514459Y601448D01*
X514127Y601409D01*
X513795Y601390D01*
X513659D01*
X513503Y601409D01*
X513308Y601428D01*
X513074Y601468D01*
X512820Y601507D01*
X512566Y601585D01*
X512313Y601682D01*
X512274Y601702D01*
X512196Y601741D01*
X512079Y601799D01*
X511942Y601877D01*
X511767Y601994D01*
X511610Y602131D01*
X511435Y602267D01*
X511298Y602443D01*
X511279Y602462D01*
X511240Y602521D01*
X511181Y602618D01*
X511103Y602735D01*
X511025Y602892D01*
X510947Y603067D01*
X510869Y603262D01*
X510811Y603477D01*
Y603496D01*
X510791Y603574D01*
X510772Y603711D01*
X510733Y603886D01*
X510713Y604120D01*
X510694Y604413D01*
X510674Y604745D01*
Y605115D01*
Y610870D01*
X513132D01*
Y606149D01*
Y606130D01*
Y606091D01*
Y606013D01*
Y605915D01*
Y605779D01*
Y605642D01*
X513152Y605350D01*
X513171Y605018D01*
X513210Y604706D01*
X513249Y604433D01*
X513269Y604316D01*
X513308Y604218D01*
Y604198D01*
X513327Y604140D01*
X513366Y604062D01*
X513425Y603965D01*
X513581Y603730D01*
X513815Y603516D01*
X513834Y603496D01*
X513873Y603477D01*
X513951Y603438D01*
X514049Y603379D01*
X514166Y603340D01*
X514322Y603301D01*
X514478Y603282D01*
X514654Y603262D01*
X514771D01*
X514888Y603282D01*
X515044Y603301D01*
X515219Y603340D01*
X515414Y603418D01*
X515609Y603496D01*
X515804Y603613D01*
X515824Y603633D01*
X515882Y603672D01*
X515961Y603750D01*
X516078Y603867D01*
X516175Y604003D01*
X516292Y604160D01*
X516409Y604335D01*
X516487Y604550D01*
Y604569D01*
X516507Y604667D01*
X516546Y604803D01*
X516565Y605018D01*
X516585Y605154D01*
X516604Y605310D01*
X516624Y605486D01*
X516643Y605681D01*
Y605896D01*
X516663Y606130D01*
Y606403D01*
Y606676D01*
Y610870D01*
X519121D01*
Y601585D01*
D02*
G37*
G36*
X474566D02*
X472303D01*
Y602853D01*
X472284Y602833D01*
X472245Y602794D01*
X472186Y602716D01*
X472089Y602618D01*
X471972Y602521D01*
X471835Y602384D01*
X471679Y602248D01*
X471484Y602111D01*
X471289Y601975D01*
X471074Y601858D01*
X470567Y601624D01*
X470314Y601526D01*
X470021Y601448D01*
X469729Y601409D01*
X469416Y601390D01*
X469260D01*
X469104Y601409D01*
X468890Y601428D01*
X468636Y601487D01*
X468382Y601546D01*
X468129Y601643D01*
X467875Y601760D01*
X467836Y601780D01*
X467758Y601838D01*
X467641Y601916D01*
X467485Y602033D01*
X467310Y602189D01*
X467134Y602384D01*
X466959Y602618D01*
X466783Y602872D01*
X466763Y602833D01*
X466685Y602755D01*
X466549Y602618D01*
X466393Y602462D01*
X466198Y602267D01*
X465983Y602092D01*
X465729Y601916D01*
X465476Y601760D01*
X465437Y601741D01*
X465359Y601702D01*
X465203Y601643D01*
X465008Y601565D01*
X464793Y601507D01*
X464520Y601448D01*
X464247Y601409D01*
X463954Y601390D01*
X463779D01*
X463603Y601409D01*
X463350Y601448D01*
X463096Y601487D01*
X462803Y601565D01*
X462511Y601682D01*
X462238Y601819D01*
X462199Y601838D01*
X462121Y601897D01*
X461984Y601994D01*
X461828Y602131D01*
X461652Y602287D01*
X461477Y602501D01*
X461301Y602755D01*
X461165Y603028D01*
X461145Y603048D01*
X461126Y603145D01*
X461087Y603282D01*
X461028Y603496D01*
X460989Y603769D01*
X460950Y604101D01*
X460931Y604491D01*
X460911Y604959D01*
Y610870D01*
X463369D01*
Y605583D01*
Y605564D01*
Y605525D01*
Y605447D01*
Y605369D01*
X463389Y605115D01*
X463408Y604842D01*
X463428Y604530D01*
X463467Y604238D01*
X463545Y603984D01*
X463584Y603867D01*
X463623Y603789D01*
X463642Y603769D01*
X463681Y603711D01*
X463779Y603613D01*
X463876Y603516D01*
X464032Y603438D01*
X464208Y603340D01*
X464422Y603282D01*
X464676Y603262D01*
X464754D01*
X464852Y603282D01*
X464988Y603301D01*
X465144Y603340D01*
X465300Y603399D01*
X465476Y603477D01*
X465652Y603594D01*
X465671Y603613D01*
X465729Y603652D01*
X465808Y603730D01*
X465905Y603828D01*
X466003Y603945D01*
X466120Y604120D01*
X466217Y604296D01*
X466295Y604511D01*
Y604530D01*
X466334Y604628D01*
X466354Y604764D01*
X466393Y604979D01*
X466432Y605252D01*
X466451Y605564D01*
X466490Y605974D01*
Y606422D01*
Y610870D01*
X468948D01*
Y605798D01*
Y605779D01*
Y605740D01*
Y605662D01*
Y605583D01*
Y605350D01*
X468968Y605057D01*
X468987Y604764D01*
X469007Y604472D01*
X469046Y604238D01*
X469065Y604120D01*
X469085Y604043D01*
Y604023D01*
X469104Y603984D01*
X469143Y603906D01*
X469182Y603828D01*
X469319Y603633D01*
X469494Y603457D01*
X469514D01*
X469553Y603418D01*
X469612Y603399D01*
X469689Y603360D01*
X469787Y603321D01*
X469924Y603301D01*
X470060Y603262D01*
X470333D01*
X470450Y603282D01*
X470587Y603301D01*
X470743Y603340D01*
X470918Y603399D01*
X471094Y603477D01*
X471270Y603574D01*
X471289Y603594D01*
X471348Y603633D01*
X471426Y603711D01*
X471523Y603808D01*
X471621Y603925D01*
X471738Y604081D01*
X471835Y604257D01*
X471913Y604472D01*
Y604491D01*
X471952Y604589D01*
X471972Y604725D01*
X472011Y604920D01*
X472050Y605174D01*
X472069Y605505D01*
X472108Y605896D01*
Y606364D01*
Y610870D01*
X474566D01*
Y601585D01*
D02*
G37*
G36*
X488397Y611085D02*
X488533Y611065D01*
X488846Y611026D01*
X489216Y610967D01*
X489626Y610870D01*
X490055Y610733D01*
X490484Y610538D01*
X490504D01*
X490543Y610519D01*
X490601Y610480D01*
X490679Y610421D01*
X490874Y610285D01*
X491128Y610109D01*
X491421Y609875D01*
X491713Y609582D01*
X491986Y609231D01*
X492240Y608841D01*
Y608822D01*
X492259Y608783D01*
X492298Y608724D01*
X492337Y608646D01*
X492376Y608529D01*
X492415Y608412D01*
X492474Y608256D01*
X492532Y608080D01*
X492630Y607690D01*
X492728Y607222D01*
X492805Y606696D01*
X492825Y606130D01*
Y606110D01*
Y606071D01*
Y606013D01*
X492805Y605915D01*
Y605818D01*
X492786Y605681D01*
X492747Y605369D01*
X492688Y604998D01*
X492571Y604608D01*
X492435Y604179D01*
X492240Y603750D01*
Y603730D01*
X492220Y603691D01*
X492181Y603633D01*
X492123Y603555D01*
X491986Y603360D01*
X491791Y603106D01*
X491557Y602813D01*
X491264Y602521D01*
X490933Y602248D01*
X490543Y601994D01*
X490523D01*
X490484Y601975D01*
X490426Y601936D01*
X490348Y601897D01*
X490250Y601858D01*
X490113Y601799D01*
X489821Y601682D01*
X489450Y601585D01*
X489021Y601487D01*
X488573Y601409D01*
X488065Y601390D01*
X487870D01*
X487714Y601409D01*
X487539Y601428D01*
X487324Y601468D01*
X487109Y601507D01*
X486856Y601565D01*
X486583Y601643D01*
X486310Y601721D01*
X486017Y601838D01*
X485744Y601975D01*
X485451Y602131D01*
X485159Y602326D01*
X484886Y602521D01*
X484632Y602775D01*
X484613Y602794D01*
X484574Y602833D01*
X484515Y602911D01*
X484417Y603028D01*
X484320Y603145D01*
X484203Y603321D01*
X484086Y603496D01*
X483949Y603711D01*
X483832Y603965D01*
X483715Y604218D01*
X483598Y604511D01*
X483501Y604803D01*
X483403Y605135D01*
X483344Y605486D01*
X483306Y605837D01*
X483286Y606227D01*
Y606247D01*
Y606325D01*
Y606422D01*
X483306Y606578D01*
X483325Y606754D01*
X483364Y606969D01*
X483403Y607203D01*
X483462Y607456D01*
X483520Y607729D01*
X483618Y608002D01*
X483735Y608295D01*
X483852Y608588D01*
X484027Y608880D01*
X484203Y609173D01*
X484417Y609446D01*
X484651Y609719D01*
X484671Y609739D01*
X484710Y609778D01*
X484788Y609856D01*
X484886Y609934D01*
X485022Y610031D01*
X485178Y610148D01*
X485373Y610285D01*
X485588Y610402D01*
X485822Y610538D01*
X486076Y610675D01*
X486349Y610792D01*
X486661Y610890D01*
X486973Y610967D01*
X487324Y611046D01*
X487695Y611085D01*
X488065Y611104D01*
X488280D01*
X488397Y611085D01*
D02*
G37*
G36*
X454942D02*
X455098D01*
X455313Y611046D01*
X455527Y611026D01*
X455781Y610967D01*
X456054Y610909D01*
X456347Y610831D01*
X456639Y610714D01*
X456951Y610597D01*
X457244Y610441D01*
X457537Y610265D01*
X457810Y610051D01*
X458063Y609797D01*
X458297Y609524D01*
Y609505D01*
X458336Y609465D01*
X458375Y609388D01*
X458434Y609290D01*
X458512Y609173D01*
X458590Y609017D01*
X458668Y608841D01*
X458746Y608646D01*
X458824Y608432D01*
X458902Y608178D01*
X458980Y607924D01*
X459058Y607632D01*
X459156Y607008D01*
X459175Y606676D01*
X459195Y606325D01*
Y606305D01*
Y606227D01*
Y606110D01*
X459175Y605935D01*
X459156Y605759D01*
X459136Y605525D01*
X459097Y605271D01*
X459039Y605018D01*
X458902Y604433D01*
X458805Y604140D01*
X458687Y603828D01*
X458551Y603535D01*
X458395Y603243D01*
X458219Y602970D01*
X458005Y602716D01*
X457985Y602696D01*
X457946Y602658D01*
X457888Y602599D01*
X457790Y602501D01*
X457673Y602404D01*
X457517Y602287D01*
X457361Y602170D01*
X457166Y602053D01*
X456951Y601936D01*
X456737Y601799D01*
X456483Y601702D01*
X456210Y601604D01*
X455917Y601507D01*
X455625Y601448D01*
X455293Y601409D01*
X454962Y601390D01*
X454767D01*
X454610Y601409D01*
X454435Y601428D01*
X454240Y601468D01*
X454006Y601507D01*
X453772Y601565D01*
X453518Y601643D01*
X453245Y601721D01*
X452972Y601838D01*
X452699Y601975D01*
X452426Y602131D01*
X452172Y602326D01*
X451918Y602521D01*
X451684Y602775D01*
X451665Y602794D01*
X451626Y602833D01*
X451567Y602911D01*
X451489Y603028D01*
X451411Y603184D01*
X451314Y603360D01*
X451197Y603555D01*
X451099Y603808D01*
X450982Y604081D01*
X450885Y604394D01*
X450787Y604745D01*
X450690Y605115D01*
X450631Y605525D01*
X450572Y605954D01*
X450533Y606442D01*
Y606949D01*
X456678D01*
Y606969D01*
Y606988D01*
Y607047D01*
X456659Y607125D01*
X456639Y607339D01*
X456600Y607573D01*
X456522Y607866D01*
X456425Y608139D01*
X456288Y608412D01*
X456093Y608666D01*
X456073Y608685D01*
X455995Y608763D01*
X455878Y608861D01*
X455703Y608958D01*
X455508Y609075D01*
X455254Y609173D01*
X454981Y609251D01*
X454688Y609270D01*
X454591D01*
X454474Y609251D01*
X454337Y609231D01*
X454201Y609192D01*
X454025Y609134D01*
X453869Y609056D01*
X453713Y608958D01*
X453694Y608939D01*
X453655Y608900D01*
X453577Y608822D01*
X453498Y608705D01*
X453401Y608568D01*
X453284Y608393D01*
X453186Y608198D01*
X453108Y607944D01*
X450670Y608354D01*
Y608373D01*
X450690Y608412D01*
X450728Y608490D01*
X450768Y608568D01*
X450807Y608685D01*
X450885Y608822D01*
X451041Y609114D01*
X451255Y609446D01*
X451509Y609778D01*
X451821Y610109D01*
X452172Y610402D01*
X452192D01*
X452211Y610441D01*
X452270Y610460D01*
X452348Y610519D01*
X452445Y610558D01*
X452582Y610616D01*
X452874Y610753D01*
X453245Y610890D01*
X453674Y610987D01*
X454162Y611065D01*
X454708Y611104D01*
X454805D01*
X454942Y611085D01*
D02*
G37*
G36*
X497916Y603516D02*
X499282D01*
Y601585D01*
X497916D01*
Y600902D01*
Y600882D01*
Y600843D01*
Y600785D01*
Y600707D01*
X497897Y600492D01*
X497877Y600239D01*
X497858Y599966D01*
X497819Y599673D01*
X497760Y599400D01*
X497682Y599166D01*
X497663Y599146D01*
X497624Y599068D01*
X497565Y598951D01*
X497468Y598834D01*
X497351Y598678D01*
X497195Y598522D01*
X497000Y598366D01*
X496766Y598210D01*
X496726Y598190D01*
X496648Y598151D01*
X496492Y598093D01*
X496297Y598015D01*
X496044Y597956D01*
X495751Y597898D01*
X495420Y597859D01*
X495049Y597839D01*
X494873D01*
X494659Y597859D01*
X494386Y597878D01*
X494073Y597917D01*
X493722Y597976D01*
X493352Y598054D01*
X492981Y598151D01*
X493313Y599868D01*
X493332D01*
X493410Y599848D01*
X493527Y599809D01*
X493683Y599790D01*
X493859Y599751D01*
X494054Y599731D01*
X494464Y599712D01*
X494542D01*
X494639Y599731D01*
X494756Y599751D01*
X495010Y599809D01*
X495127Y599887D01*
X495224Y599966D01*
Y599985D01*
X495263Y600024D01*
X495302Y600083D01*
X495341Y600180D01*
X495381Y600317D01*
X495420Y600492D01*
X495439Y600687D01*
X495458Y600941D01*
Y601585D01*
X493625D01*
Y603516D01*
X495458D01*
Y610870D01*
X497916D01*
Y603516D01*
D02*
G37*
G36*
X544031Y600219D02*
X547796D01*
Y598054D01*
X537672D01*
Y600219D01*
X541437D01*
Y610870D01*
X544031D01*
Y600219D01*
D02*
G37*
G36*
X574287Y611085D02*
X574424D01*
X574580Y611065D01*
X574755Y611026D01*
X574970Y610987D01*
X575184Y610928D01*
X575419Y610850D01*
X575672Y610753D01*
X575926Y610636D01*
X576179Y610499D01*
X576433Y610343D01*
X576667Y610148D01*
X576921Y609934D01*
X577135Y609680D01*
X577155Y609661D01*
X577174Y609602D01*
X577233Y609524D01*
X577311Y609388D01*
X577389Y609231D01*
X577486Y609036D01*
X577603Y608783D01*
X577701Y608490D01*
X577798Y608158D01*
X577915Y607788D01*
X578013Y607378D01*
X578091Y606910D01*
X578169Y606383D01*
X578208Y605837D01*
X578247Y605213D01*
X578267Y604550D01*
Y604530D01*
Y604511D01*
Y604394D01*
Y604198D01*
X578247Y603965D01*
X578228Y603652D01*
X578208Y603321D01*
X578169Y602950D01*
X578111Y602540D01*
X577954Y601682D01*
X577857Y601253D01*
X577740Y600824D01*
X577603Y600414D01*
X577428Y600024D01*
X577233Y599653D01*
X577018Y599341D01*
X576999Y599322D01*
X576979Y599283D01*
X576901Y599224D01*
X576823Y599127D01*
X576726Y599029D01*
X576589Y598912D01*
X576433Y598795D01*
X576257Y598678D01*
X576062Y598561D01*
X575848Y598424D01*
X575614Y598327D01*
X575360Y598229D01*
X575067Y598132D01*
X574775Y598073D01*
X574443Y598034D01*
X574112Y598015D01*
X573936D01*
X573799Y598034D01*
X573643Y598054D01*
X573468Y598093D01*
X573273Y598132D01*
X573058Y598190D01*
X572824Y598249D01*
X572590Y598346D01*
X572336Y598444D01*
X572102Y598581D01*
X571868Y598736D01*
X571634Y598912D01*
X571419Y599127D01*
X571205Y599361D01*
X571185Y599380D01*
X571146Y599439D01*
X571088Y599536D01*
X571010Y599653D01*
X570912Y599829D01*
X570815Y600043D01*
X570698Y600297D01*
X570581Y600590D01*
X570464Y600941D01*
X570347Y601311D01*
X570249Y601741D01*
X570152Y602209D01*
X570074Y602735D01*
X570015Y603301D01*
X569976Y603906D01*
X569957Y604569D01*
Y604589D01*
Y604608D01*
Y604725D01*
Y604920D01*
X569976Y605154D01*
X569995Y605466D01*
X570015Y605798D01*
X570054Y606188D01*
X570113Y606598D01*
X570269Y607456D01*
X570366Y607885D01*
X570483Y608315D01*
X570639Y608724D01*
X570815Y609114D01*
X571010Y609485D01*
X571225Y609797D01*
X571244Y609817D01*
X571264Y609856D01*
X571322Y609914D01*
X571419Y609992D01*
X571517Y610109D01*
X571654Y610207D01*
X571790Y610324D01*
X571966Y610441D01*
X572161Y610577D01*
X572375Y610694D01*
X572629Y610792D01*
X572883Y610890D01*
X573156Y610987D01*
X573448Y611046D01*
X573780Y611085D01*
X574112Y611104D01*
X574190D01*
X574287Y611085D01*
D02*
G37*
G36*
X270929Y388601D02*
X271105D01*
X271319Y388581D01*
X271534Y388542D01*
X271787Y388522D01*
X272334Y388425D01*
X272938Y388269D01*
X273543Y388074D01*
X274148Y387801D01*
X274167Y387781D01*
X274226Y387762D01*
X274304Y387703D01*
X274401Y387645D01*
X274538Y387547D01*
X274694Y387450D01*
X275026Y387177D01*
X275416Y386825D01*
X275825Y386416D01*
X276196Y385909D01*
X276547Y385343D01*
Y385323D01*
X276567Y385284D01*
X276606Y385226D01*
X276645Y385128D01*
X276703Y384992D01*
X276742Y384855D01*
X276801Y384679D01*
X276879Y384504D01*
X276937Y384289D01*
X276996Y384055D01*
X277035Y383802D01*
X277093Y383529D01*
X277171Y382943D01*
X277191Y382280D01*
Y382046D01*
X277171Y381890D01*
X277152Y381695D01*
X277132Y381461D01*
X277113Y381207D01*
X277074Y380915D01*
X276937Y380329D01*
X276762Y379705D01*
X276645Y379413D01*
X276508Y379120D01*
X276352Y378827D01*
X276176Y378574D01*
X276157Y378554D01*
X276137Y378515D01*
X276079Y378437D01*
X276001Y378359D01*
X275884Y378242D01*
X275767Y378125D01*
X275630Y377989D01*
X275455Y377852D01*
X275279Y377696D01*
X275065Y377559D01*
X274850Y377403D01*
X274596Y377267D01*
X274070Y377033D01*
X273757Y376916D01*
X273445Y376838D01*
X272958Y379413D01*
X272977D01*
X272997Y379432D01*
X273114Y379471D01*
X273289Y379530D01*
X273504Y379647D01*
X273738Y379783D01*
X273972Y379959D01*
X274226Y380173D01*
X274440Y380427D01*
X274460Y380466D01*
X274518Y380564D01*
X274616Y380720D01*
X274713Y380934D01*
X274811Y381207D01*
X274909Y381519D01*
X274967Y381890D01*
X274986Y382280D01*
Y382436D01*
X274967Y382553D01*
X274947Y382709D01*
X274928Y382865D01*
X274850Y383256D01*
X274713Y383685D01*
X274518Y384133D01*
X274401Y384348D01*
X274265Y384562D01*
X274089Y384777D01*
X273894Y384972D01*
X273875Y384992D01*
X273836Y385011D01*
X273777Y385070D01*
X273699Y385128D01*
X273582Y385206D01*
X273445Y385284D01*
X273289Y385362D01*
X273094Y385460D01*
X272880Y385557D01*
X272646Y385635D01*
X272372Y385713D01*
X272099Y385792D01*
X271787Y385850D01*
X271436Y385909D01*
X271085Y385928D01*
X270695Y385947D01*
X270675D01*
X270597D01*
X270480D01*
X270324Y385928D01*
X270129Y385909D01*
X269915Y385889D01*
X269681Y385869D01*
X269407Y385830D01*
X268861Y385713D01*
X268276Y385518D01*
X268003Y385421D01*
X267749Y385284D01*
X267496Y385128D01*
X267262Y384953D01*
X267242Y384933D01*
X267223Y384914D01*
X267164Y384855D01*
X267086Y384777D01*
X267008Y384660D01*
X266910Y384543D01*
X266793Y384406D01*
X266696Y384231D01*
X266481Y383860D01*
X266306Y383412D01*
X266228Y383158D01*
X266189Y382885D01*
X266150Y382592D01*
X266130Y382300D01*
Y382163D01*
X266150Y382007D01*
X266169Y381792D01*
X266208Y381558D01*
X266267Y381285D01*
X266345Y380993D01*
X266442Y380681D01*
X266462Y380642D01*
X266501Y380544D01*
X266559Y380388D01*
X266657Y380193D01*
X266774Y379978D01*
X266910Y379744D01*
X267047Y379510D01*
X267223Y379276D01*
X268861D01*
Y382222D01*
X271026D01*
Y376662D01*
X265896D01*
X265857Y376701D01*
X265760Y376818D01*
X265623Y376994D01*
X265428Y377267D01*
X265213Y377598D01*
X264979Y378008D01*
X264745Y378476D01*
X264511Y379022D01*
Y379042D01*
X264492Y379100D01*
X264453Y379179D01*
X264414Y379296D01*
X264375Y379432D01*
X264336Y379588D01*
X264277Y379783D01*
X264219Y379998D01*
X264121Y380466D01*
X264023Y380993D01*
X263945Y381558D01*
X263926Y382144D01*
Y382339D01*
X263945Y382475D01*
Y382651D01*
X263965Y382865D01*
X264004Y383080D01*
X264023Y383334D01*
X264140Y383880D01*
X264277Y384465D01*
X264492Y385070D01*
X264609Y385362D01*
X264765Y385655D01*
X264784Y385674D01*
X264804Y385713D01*
X264862Y385792D01*
X264921Y385889D01*
X264999Y386026D01*
X265116Y386162D01*
X265389Y386494D01*
X265721Y386845D01*
X266130Y387215D01*
X266618Y387567D01*
X267164Y387879D01*
X267184D01*
X267242Y387918D01*
X267320Y387937D01*
X267437Y387996D01*
X267593Y388054D01*
X267769Y388113D01*
X267964Y388171D01*
X268179Y388249D01*
X268432Y388327D01*
X268705Y388386D01*
X269271Y388503D01*
X269915Y388581D01*
X270597Y388620D01*
X270617D01*
X270695D01*
X270792D01*
X270929Y388601D01*
D02*
G37*
G36*
X273445Y372039D02*
X272080D01*
X272099Y372019D01*
X272138Y371980D01*
X272216Y371922D01*
X272334Y371824D01*
X272451Y371707D01*
X272568Y371551D01*
X272724Y371395D01*
X272860Y371200D01*
X272997Y370985D01*
X273153Y370771D01*
X273270Y370517D01*
X273406Y370244D01*
X273504Y369952D01*
X273582Y369659D01*
X273621Y369327D01*
X273640Y368996D01*
Y368859D01*
X273621Y368703D01*
X273601Y368508D01*
X273563Y368274D01*
X273524Y368020D01*
X273445Y367767D01*
X273348Y367513D01*
X273328Y367474D01*
X273289Y367396D01*
X273231Y367279D01*
X273153Y367143D01*
X273036Y366967D01*
X272899Y366811D01*
X272763Y366635D01*
X272587Y366499D01*
X272568Y366479D01*
X272509Y366440D01*
X272411Y366382D01*
X272295Y366304D01*
X272138Y366226D01*
X271963Y366148D01*
X271768Y366070D01*
X271553Y366011D01*
X271534D01*
X271456Y365992D01*
X271319Y365972D01*
X271144Y365933D01*
X270910Y365914D01*
X270617Y365894D01*
X270285Y365875D01*
X269915D01*
X264160D01*
Y368332D01*
X268881D01*
X268900D01*
X268939D01*
X269017D01*
X269115D01*
X269251D01*
X269388D01*
X269681Y368352D01*
X270012Y368372D01*
X270324Y368410D01*
X270597Y368450D01*
X270714Y368469D01*
X270812Y368508D01*
X270832D01*
X270890Y368528D01*
X270968Y368567D01*
X271066Y368625D01*
X271300Y368781D01*
X271514Y369015D01*
X271534Y369035D01*
X271553Y369074D01*
X271592Y369152D01*
X271651Y369249D01*
X271690Y369366D01*
X271729Y369523D01*
X271748Y369678D01*
X271768Y369854D01*
Y369971D01*
X271748Y370088D01*
X271729Y370244D01*
X271690Y370420D01*
X271612Y370615D01*
X271534Y370810D01*
X271417Y371005D01*
X271397Y371025D01*
X271358Y371083D01*
X271280Y371161D01*
X271163Y371278D01*
X271026Y371376D01*
X270870Y371493D01*
X270695Y371610D01*
X270480Y371688D01*
X270461D01*
X270363Y371707D01*
X270227Y371746D01*
X270012Y371766D01*
X269876Y371785D01*
X269720Y371805D01*
X269544Y371824D01*
X269349Y371844D01*
X269134D01*
X268900Y371863D01*
X268627D01*
X268354D01*
X264160D01*
Y374321D01*
X273445D01*
Y372039D01*
D02*
G37*
G36*
X269193Y363885D02*
X269388Y363865D01*
X269622Y363846D01*
X269876Y363807D01*
X270129Y363768D01*
X270714Y363631D01*
X271319Y363436D01*
X271612Y363319D01*
X271885Y363163D01*
X272158Y363007D01*
X272392Y362812D01*
X272411Y362793D01*
X272451Y362753D01*
X272509Y362695D01*
X272587Y362617D01*
X272685Y362500D01*
X272782Y362363D01*
X272899Y362207D01*
X273016Y362051D01*
X273133Y361856D01*
X273250Y361642D01*
X273445Y361154D01*
X273524Y360900D01*
X273582Y360608D01*
X273621Y360315D01*
X273640Y360003D01*
Y359847D01*
X273621Y359749D01*
X273601Y359613D01*
X273563Y359457D01*
X273484Y359086D01*
X273328Y358676D01*
X273211Y358442D01*
X273094Y358208D01*
X272938Y357994D01*
X272763Y357760D01*
X272568Y357525D01*
X272334Y357311D01*
X276976D01*
Y354853D01*
X264160D01*
Y357135D01*
X265506D01*
X265467Y357155D01*
X265369Y357233D01*
X265233Y357369D01*
X265057Y357525D01*
X264882Y357721D01*
X264667Y357955D01*
X264492Y358208D01*
X264316Y358501D01*
X264297Y358540D01*
X264258Y358637D01*
X264199Y358774D01*
X264121Y358969D01*
X264043Y359203D01*
X263984Y359476D01*
X263945Y359749D01*
X263926Y360042D01*
Y360198D01*
X263945Y360315D01*
X263965Y360452D01*
X264004Y360608D01*
X264082Y360978D01*
X264238Y361408D01*
X264336Y361642D01*
X264472Y361876D01*
X264609Y362110D01*
X264784Y362324D01*
X264979Y362558D01*
X265213Y362773D01*
X265233Y362793D01*
X265272Y362812D01*
X265350Y362870D01*
X265448Y362948D01*
X265584Y363027D01*
X265740Y363124D01*
X265935Y363241D01*
X266150Y363339D01*
X266384Y363436D01*
X266657Y363553D01*
X266950Y363651D01*
X267281Y363729D01*
X267613Y363807D01*
X267983Y363846D01*
X268393Y363885D01*
X268803Y363904D01*
X268822D01*
X268900D01*
X269037D01*
X269193Y363885D01*
D02*
G37*
G36*
X270303Y436065D02*
X273619D01*
Y433821D01*
X270303D01*
Y430466D01*
X268040D01*
Y433821D01*
X264724D01*
Y436065D01*
X268040D01*
Y439420D01*
X270303D01*
Y436065D01*
D02*
G37*
G36*
X272507Y428262D02*
X272527Y428242D01*
X272546Y428184D01*
X272566Y428106D01*
X272644Y427911D01*
X272780Y427657D01*
X272936Y427345D01*
X273151Y426994D01*
X273385Y426604D01*
X273697Y426194D01*
X273717Y426175D01*
X273736Y426136D01*
X273794Y426077D01*
X273853Y426019D01*
X274029Y425824D01*
X274282Y425570D01*
X274575Y425316D01*
X274926Y425063D01*
X275316Y424829D01*
X275745Y424653D01*
Y422644D01*
X262890D01*
Y425102D01*
X272136D01*
X272117Y425121D01*
X272078Y425160D01*
X272019Y425238D01*
X271922Y425336D01*
X271824Y425472D01*
X271707Y425628D01*
X271571Y425804D01*
X271434Y426019D01*
X271278Y426233D01*
X271122Y426487D01*
X270829Y427013D01*
X270537Y427618D01*
X270283Y428281D01*
X272507D01*
Y428262D01*
D02*
G37*
G36*
X263027Y419289D02*
X263105Y419269D01*
X263222Y419250D01*
X263358Y419230D01*
X263670Y419152D01*
X264060Y419054D01*
X264470Y418898D01*
X264899Y418723D01*
X265328Y418489D01*
X265348D01*
X265387Y418450D01*
X265445Y418411D01*
X265543Y418352D01*
X265660Y418255D01*
X265797Y418157D01*
X265972Y418021D01*
X266148Y417884D01*
X266362Y417709D01*
X266596Y417494D01*
X266850Y417279D01*
X267123Y417026D01*
X267416Y416733D01*
X267728Y416441D01*
X268059Y416089D01*
X268410Y415719D01*
X268430Y415699D01*
X268469Y415641D01*
X268567Y415563D01*
X268664Y415446D01*
X268781Y415329D01*
X268937Y415173D01*
X269249Y414841D01*
X269601Y414490D01*
X269952Y414158D01*
X270108Y414002D01*
X270244Y413866D01*
X270381Y413749D01*
X270498Y413671D01*
X270537Y413651D01*
X270634Y413592D01*
X270771Y413514D01*
X270966Y413417D01*
X271200Y413319D01*
X271454Y413241D01*
X271727Y413183D01*
X272000Y413163D01*
X272039D01*
X272136D01*
X272292Y413183D01*
X272468Y413222D01*
X272663Y413280D01*
X272878Y413358D01*
X273092Y413456D01*
X273268Y413612D01*
X273287Y413632D01*
X273346Y413690D01*
X273404Y413787D01*
X273502Y413924D01*
X273580Y414100D01*
X273638Y414314D01*
X273697Y414568D01*
X273717Y414841D01*
Y414958D01*
X273697Y415114D01*
X273658Y415270D01*
X273599Y415465D01*
X273521Y415680D01*
X273404Y415875D01*
X273248Y416070D01*
X273229Y416089D01*
X273151Y416148D01*
X273053Y416206D01*
X272878Y416304D01*
X272663Y416382D01*
X272409Y416479D01*
X272078Y416538D01*
X271707Y416577D01*
X271941Y419016D01*
X271961D01*
X272039Y418996D01*
X272136D01*
X272273Y418957D01*
X272449Y418937D01*
X272624Y418879D01*
X272839Y418840D01*
X273073Y418762D01*
X273541Y418586D01*
X274029Y418352D01*
X274263Y418196D01*
X274477Y418040D01*
X274672Y417845D01*
X274848Y417650D01*
X274867Y417631D01*
X274887Y417591D01*
X274926Y417533D01*
X274984Y417435D01*
X275063Y417338D01*
X275140Y417201D01*
X275219Y417045D01*
X275297Y416850D01*
X275375Y416655D01*
X275453Y416441D01*
X275609Y415953D01*
X275706Y415407D01*
X275745Y415094D01*
Y414607D01*
X275726Y414470D01*
X275706Y414314D01*
X275687Y414119D01*
X275667Y413924D01*
X275609Y413690D01*
X275492Y413222D01*
X275316Y412715D01*
X275199Y412481D01*
X275063Y412227D01*
X274887Y412012D01*
X274711Y411798D01*
X274692Y411778D01*
X274672Y411759D01*
X274614Y411700D01*
X274536Y411622D01*
X274438Y411544D01*
X274302Y411447D01*
X274009Y411252D01*
X273638Y411057D01*
X273209Y410881D01*
X272722Y410744D01*
X272449Y410725D01*
X272175Y410705D01*
X272136D01*
X272039D01*
X271863Y410725D01*
X271649Y410744D01*
X271395Y410783D01*
X271122Y410842D01*
X270810Y410920D01*
X270517Y411017D01*
X270478Y411037D01*
X270381Y411076D01*
X270225Y411154D01*
X270030Y411252D01*
X269776Y411388D01*
X269503Y411564D01*
X269210Y411778D01*
X268898Y412012D01*
X268879Y412032D01*
X268801Y412090D01*
X268664Y412207D01*
X268489Y412383D01*
X268255Y412598D01*
X267962Y412890D01*
X267630Y413222D01*
X267260Y413632D01*
X267240Y413651D01*
X267221Y413690D01*
X267162Y413749D01*
X267084Y413807D01*
X266908Y414002D01*
X266674Y414236D01*
X266440Y414490D01*
X266206Y414724D01*
X265992Y414939D01*
X265914Y415017D01*
X265836Y415094D01*
X265816Y415114D01*
X265777Y415153D01*
X265718Y415212D01*
X265621Y415270D01*
X265426Y415446D01*
X265172Y415602D01*
Y410705D01*
X262890D01*
Y419308D01*
X262910D01*
X262948D01*
X263027Y419289D01*
D02*
G37*
%LPC*%
G36*
X525870Y609368D02*
X525753D01*
X525636Y609348D01*
X525461Y609309D01*
X525266Y609270D01*
X525051Y609192D01*
X524836Y609075D01*
X524602Y608939D01*
X524583Y608919D01*
X524524Y608880D01*
X524466Y608802D01*
X524368Y608705D01*
X524271Y608588D01*
X524173Y608451D01*
X524095Y608295D01*
X524017Y608120D01*
Y608100D01*
X523997Y608061D01*
X523978Y607983D01*
X523959Y607846D01*
Y607690D01*
X523939Y607476D01*
X523919Y607242D01*
Y606930D01*
Y606422D01*
X523939D01*
X524017Y606461D01*
X524134Y606481D01*
X524290Y606539D01*
X524505Y606598D01*
X524758Y606656D01*
X525070Y606735D01*
X525422Y606813D01*
X525461D01*
X525578Y606852D01*
X525753Y606890D01*
X525968Y606949D01*
X526182Y607008D01*
X526416Y607086D01*
X526592Y607164D01*
X526748Y607242D01*
X526768Y607261D01*
X526826Y607300D01*
X526904Y607378D01*
X526982Y607476D01*
X527060Y607593D01*
X527138Y607749D01*
X527197Y607905D01*
X527216Y608100D01*
Y608120D01*
Y608178D01*
X527197Y608295D01*
X527177Y608412D01*
X527119Y608549D01*
X527060Y608705D01*
X526963Y608861D01*
X526846Y608997D01*
X526826Y609017D01*
X526768Y609056D01*
X526689Y609114D01*
X526572Y609173D01*
X526436Y609251D01*
X526260Y609309D01*
X526085Y609348D01*
X525870Y609368D01*
D02*
G37*
G36*
X590244Y604764D02*
X590127D01*
X589990Y604725D01*
X589834Y604686D01*
X589639Y604628D01*
X589444Y604530D01*
X589249Y604394D01*
X589054Y604218D01*
X589035Y604198D01*
X588976Y604120D01*
X588898Y603984D01*
X588800Y603789D01*
X588722Y603555D01*
X588644Y603282D01*
X588586Y602950D01*
X588566Y602560D01*
Y602540D01*
Y602501D01*
Y602443D01*
Y602365D01*
X588586Y602150D01*
X588625Y601877D01*
X588703Y601585D01*
X588800Y601273D01*
X588937Y600980D01*
X589113Y600707D01*
X589132Y600687D01*
X589210Y600609D01*
X589327Y600492D01*
X589483Y600375D01*
X589659Y600258D01*
X589873Y600141D01*
X590127Y600063D01*
X590381Y600043D01*
X590498D01*
X590615Y600063D01*
X590771Y600102D01*
X590966Y600180D01*
X591141Y600278D01*
X591336Y600414D01*
X591512Y600590D01*
X591531Y600609D01*
X591571Y600687D01*
X591648Y600824D01*
X591726Y601019D01*
X591805Y601253D01*
X591883Y601565D01*
X591922Y601936D01*
X591941Y602365D01*
Y602384D01*
Y602423D01*
Y602482D01*
Y602560D01*
X591922Y602794D01*
X591883Y603067D01*
X591824Y603360D01*
X591746Y603672D01*
X591629Y603945D01*
X591473Y604198D01*
X591453Y604218D01*
X591375Y604277D01*
X591278Y604374D01*
X591141Y604472D01*
X590966Y604589D01*
X590751Y604667D01*
X590517Y604745D01*
X590244Y604764D01*
D02*
G37*
G36*
X558447D02*
X558330D01*
X558194Y604725D01*
X558038Y604686D01*
X557842Y604628D01*
X557647Y604530D01*
X557452Y604394D01*
X557257Y604218D01*
X557238Y604198D01*
X557179Y604120D01*
X557101Y603984D01*
X557004Y603789D01*
X556926Y603555D01*
X556848Y603282D01*
X556789Y602950D01*
X556770Y602560D01*
Y602540D01*
Y602501D01*
Y602443D01*
Y602365D01*
X556789Y602150D01*
X556828Y601877D01*
X556906Y601585D01*
X557004Y601273D01*
X557140Y600980D01*
X557316Y600707D01*
X557335Y600687D01*
X557413Y600609D01*
X557530Y600492D01*
X557687Y600375D01*
X557862Y600258D01*
X558077Y600141D01*
X558330Y600063D01*
X558584Y600043D01*
X558701D01*
X558818Y600063D01*
X558974Y600102D01*
X559169Y600180D01*
X559345Y600278D01*
X559540Y600414D01*
X559715Y600590D01*
X559735Y600609D01*
X559774Y600687D01*
X559852Y600824D01*
X559930Y601019D01*
X560008Y601253D01*
X560086Y601565D01*
X560125Y601936D01*
X560144Y602365D01*
Y602384D01*
Y602423D01*
Y602482D01*
Y602560D01*
X560125Y602794D01*
X560086Y603067D01*
X560027Y603360D01*
X559949Y603672D01*
X559832Y603945D01*
X559676Y604198D01*
X559657Y604218D01*
X559579Y604277D01*
X559481Y604374D01*
X559345Y604472D01*
X559169Y604589D01*
X558954Y604667D01*
X558720Y604745D01*
X558447Y604764D01*
D02*
G37*
G36*
X488065Y609095D02*
X488026D01*
X487909Y609075D01*
X487734Y609056D01*
X487500Y608997D01*
X487246Y608919D01*
X486992Y608783D01*
X486719Y608607D01*
X486466Y608373D01*
X486446Y608334D01*
X486368Y608237D01*
X486251Y608061D01*
X486134Y607827D01*
X486017Y607534D01*
X485900Y607164D01*
X485822Y606735D01*
X485802Y606247D01*
Y606227D01*
Y606188D01*
Y606110D01*
Y606013D01*
X485822Y605915D01*
X485841Y605779D01*
X485881Y605466D01*
X485959Y605135D01*
X486076Y604784D01*
X486251Y604452D01*
X486466Y604140D01*
X486485Y604101D01*
X486583Y604023D01*
X486719Y603906D01*
X486914Y603769D01*
X487129Y603633D01*
X487402Y603516D01*
X487714Y603438D01*
X488065Y603399D01*
X488104D01*
X488221Y603418D01*
X488397Y603438D01*
X488631Y603496D01*
X488885Y603574D01*
X489138Y603711D01*
X489411Y603886D01*
X489665Y604140D01*
X489684Y604179D01*
X489762Y604277D01*
X489860Y604452D01*
X489977Y604686D01*
X490113Y604979D01*
X490211Y605350D01*
X490289Y605759D01*
X490309Y606247D01*
Y606266D01*
Y606305D01*
Y606383D01*
X490289Y606481D01*
Y606598D01*
X490270Y606715D01*
X490231Y607027D01*
X490153Y607378D01*
X490036Y607729D01*
X489879Y608061D01*
X489665Y608373D01*
X489626Y608412D01*
X489548Y608490D01*
X489411Y608607D01*
X489216Y608724D01*
X488982Y608861D01*
X488709Y608978D01*
X488416Y609056D01*
X488065Y609095D01*
D02*
G37*
G36*
X456639Y605447D02*
X452972D01*
Y605428D01*
Y605408D01*
Y605350D01*
X452991Y605271D01*
X453011Y605076D01*
X453050Y604842D01*
X453128Y604589D01*
X453225Y604316D01*
X453362Y604062D01*
X453537Y603828D01*
X453557Y603808D01*
X453635Y603730D01*
X453733Y603652D01*
X453889Y603535D01*
X454064Y603438D01*
X454279Y603340D01*
X454532Y603282D01*
X454805Y603262D01*
X454942D01*
X455079Y603301D01*
X455274Y603340D01*
X455488Y603418D01*
X455703Y603516D01*
X455917Y603672D01*
X456132Y603867D01*
X456152Y603886D01*
X456210Y603965D01*
X456288Y604101D01*
X456386Y604277D01*
X456483Y604511D01*
X456561Y604784D01*
X456620Y605096D01*
X456639Y605447D01*
D02*
G37*
G36*
X574112Y609075D02*
X574034D01*
X573955Y609056D01*
X573858Y609036D01*
X573604Y608958D01*
X573487Y608900D01*
X573351Y608802D01*
X573331Y608783D01*
X573292Y608744D01*
X573234Y608666D01*
X573156Y608568D01*
X573058Y608432D01*
X572980Y608256D01*
X572883Y608041D01*
X572804Y607788D01*
Y607768D01*
X572785Y607749D01*
Y607690D01*
X572766Y607593D01*
X572746Y607495D01*
X572727Y607359D01*
X572707Y607203D01*
X572668Y607027D01*
X572649Y606813D01*
X572629Y606578D01*
X572609Y606325D01*
X572590Y606032D01*
X572570Y605701D01*
Y605350D01*
X572551Y604979D01*
Y604569D01*
Y604550D01*
Y604472D01*
Y604355D01*
Y604198D01*
Y604023D01*
X572570Y603808D01*
Y603574D01*
Y603340D01*
X572609Y602813D01*
X572649Y602306D01*
X572668Y602072D01*
X572707Y601838D01*
X572746Y601643D01*
X572785Y601468D01*
Y601448D01*
Y601428D01*
X572824Y601331D01*
X572863Y601194D01*
X572941Y601019D01*
X573117Y600629D01*
X573234Y600473D01*
X573351Y600336D01*
X573370Y600317D01*
X573409Y600297D01*
X573487Y600239D01*
X573565Y600180D01*
X573682Y600141D01*
X573819Y600083D01*
X573955Y600063D01*
X574112Y600043D01*
X574190D01*
X574268Y600063D01*
X574385Y600083D01*
X574502Y600121D01*
X574638Y600160D01*
X574775Y600239D01*
X574911Y600336D01*
X574931Y600356D01*
X574970Y600395D01*
X575028Y600473D01*
X575106Y600570D01*
X575184Y600707D01*
X575282Y600882D01*
X575360Y601097D01*
X575438Y601351D01*
Y601370D01*
Y601390D01*
X575457Y601448D01*
X575477Y601526D01*
X575496Y601643D01*
X575516Y601780D01*
X575536Y601936D01*
X575555Y602111D01*
X575575Y602326D01*
X575594Y602560D01*
X575614Y602813D01*
X575633Y603106D01*
X575653Y603438D01*
Y603789D01*
X575672Y604160D01*
Y604569D01*
Y604589D01*
Y604667D01*
Y604784D01*
Y604940D01*
Y605115D01*
X575653Y605330D01*
Y605564D01*
Y605798D01*
X575614Y606325D01*
X575575Y606832D01*
X575555Y607086D01*
X575536Y607300D01*
X575496Y607515D01*
X575457Y607690D01*
X575438Y607729D01*
X575419Y607827D01*
X575379Y607963D01*
X575302Y608139D01*
X575223Y608334D01*
X575145Y608510D01*
X575028Y608666D01*
X574911Y608802D01*
X574892Y608822D01*
X574853Y608841D01*
X574775Y608880D01*
X574677Y608939D01*
X574560Y608997D01*
X574424Y609036D01*
X574268Y609056D01*
X574112Y609075D01*
D02*
G37*
G36*
X268978Y361388D02*
X268959D01*
X268920D01*
X268842D01*
X268725D01*
X268608Y361368D01*
X268471D01*
X268139Y361329D01*
X267788Y361290D01*
X267437Y361232D01*
X267106Y361134D01*
X266950Y361056D01*
X266813Y360998D01*
X266793D01*
X266774Y360978D01*
X266657Y360881D01*
X266520Y360744D01*
X266345Y360569D01*
X266169Y360335D01*
X266013Y360042D01*
X265896Y359710D01*
X265877Y359535D01*
X265857Y359340D01*
Y359301D01*
X265877Y359203D01*
X265896Y359047D01*
X265955Y358852D01*
X266033Y358618D01*
X266169Y358384D01*
X266345Y358150D01*
X266579Y357916D01*
X266618Y357896D01*
X266715Y357818D01*
X266891Y357721D01*
X267125Y357604D01*
X267418Y357506D01*
X267788Y357408D01*
X268237Y357331D01*
X268744Y357311D01*
X268764D01*
X268822D01*
X268900D01*
X268998D01*
X269134Y357331D01*
X269290Y357350D01*
X269641Y357389D01*
X270012Y357448D01*
X270383Y357565D01*
X270753Y357701D01*
X270910Y357799D01*
X271046Y357896D01*
X271085Y357916D01*
X271163Y357994D01*
X271280Y358130D01*
X271417Y358286D01*
X271534Y358501D01*
X271651Y358755D01*
X271729Y359047D01*
X271768Y359359D01*
Y359398D01*
X271748Y359496D01*
X271729Y359652D01*
X271690Y359866D01*
X271592Y360081D01*
X271475Y360335D01*
X271300Y360569D01*
X271066Y360803D01*
X271026Y360822D01*
X270929Y360900D01*
X270773Y360978D01*
X270539Y361095D01*
X270246Y361193D01*
X269895Y361290D01*
X269466Y361368D01*
X268978Y361388D01*
D02*
G37*
%LPD*%
D10*
X667380Y521970D02*
G03*
X680080Y521970I6350J0D01*
G01*
X547360Y349890D02*
G03*
X547360Y349890I-80000J0D01*
G01*
X654580Y344170D02*
Y521970D01*
Y344170D02*
X692880D01*
Y521970D01*
X680080D02*
X692880D01*
X654580D02*
X667380D01*
X505160Y425410D02*
Y435570D01*
X500080Y430490D02*
X510240D01*
D11*
X334500Y497840D02*
G03*
X334500Y497840I-28000J0D01*
G01*
X577820Y433500D02*
Y498500D01*
X605820D01*
Y430500D02*
Y498500D01*
X580820Y430500D02*
X605820D01*
X577820Y433500D02*
X580820Y430500D01*
X442690Y590910D02*
X597690D01*
X442690Y500910D02*
Y590910D01*
Y500910D02*
X597690D01*
Y590910D01*
X286660Y347640D02*
Y451640D01*
Y347640D02*
X376660D01*
Y451640D01*
X286660D02*
X376660D01*
X519670Y452550D02*
Y476550D01*
X473670D02*
X519670D01*
X473670Y452550D02*
Y476550D01*
Y452550D02*
X519670D01*
X342330Y485100D02*
X366330D01*
Y531100D01*
X342330D02*
X366330D01*
X342330Y485100D02*
Y531100D01*
X578550Y350280D02*
X602550D01*
Y396280D01*
X578550D02*
X602550D01*
X578550Y350280D02*
Y396280D01*
X752540Y520660D02*
X776540D01*
Y566660D01*
X752540D02*
X776540D01*
X752540Y520660D02*
Y566660D01*
X767040Y421070D02*
Y445070D01*
Y421070D02*
X813040D01*
Y445070D01*
X767040D02*
X813040D01*
X849040Y500510D02*
X850040Y501510D01*
Y603510D01*
X810040Y600510D02*
X813040Y603510D01*
X810040Y500510D02*
Y600510D01*
Y500510D02*
X858040D01*
Y603510D01*
X813040D02*
X858040D01*
X814310Y394570D02*
X859310D01*
Y291570D02*
Y394570D01*
X811310Y291570D02*
X859310D01*
X811310D02*
Y391570D01*
X814310Y394570D01*
X851310Y292570D02*
Y394570D01*
X850310Y291570D02*
X851310Y292570D01*
X376890Y527550D02*
X402890D01*
X375890Y484550D02*
Y543550D01*
X402890D01*
Y484550D02*
Y543550D01*
X375890Y484550D02*
X402890D01*
X567090Y248720D02*
Y316720D01*
X667090D01*
Y247720D02*
Y316720D01*
X568090Y247720D02*
X667090D01*
X567090Y248720D02*
X568090Y247720D01*
X928370Y269240D02*
X933450Y254000D01*
X938530Y269240D01*
X933450Y624840D02*
X938530Y609600D01*
X928370D02*
X933450Y624840D01*
Y254000D02*
Y397013D01*
Y473699D02*
Y624840D01*
X910590Y254000D02*
X935990D01*
X910590Y624840D02*
X935990D01*
X254000Y219710D02*
X269240Y224790D01*
X254000Y219710D02*
X269240Y214630D01*
X892810D02*
X908050Y219710D01*
X892810Y224790D02*
X908050Y219710D01*
X254000D02*
X541157D01*
X612765D02*
X908050D01*
X254000Y217170D02*
Y251460D01*
X908050Y217170D02*
Y251460D01*
X678185Y265430D02*
X688342D01*
X693420Y270508D01*
X688342Y275587D01*
X678185D01*
X693420Y280665D02*
X678185D01*
Y288283D01*
X680724Y290822D01*
X685803D01*
X688342Y288283D01*
Y280665D01*
Y285743D02*
X693420Y290822D01*
Y295900D02*
Y300979D01*
Y298439D01*
X678185D01*
X680724Y295900D01*
X694680Y544825D02*
Y532129D01*
X697219Y529590D01*
X702298D01*
X704837Y532129D01*
Y544825D01*
X709915Y529590D02*
X714993D01*
X712454D01*
Y544825D01*
X709915Y542286D01*
X842010Y426720D02*
Y441955D01*
X849628D01*
X852167Y439416D01*
Y434338D01*
X849628Y431798D01*
X842010D01*
X847088D02*
X852167Y426720D01*
X867402Y441955D02*
X857245D01*
Y434338D01*
X862323Y436877D01*
X864863D01*
X867402Y434338D01*
Y429259D01*
X864863Y426720D01*
X859784D01*
X857245Y429259D01*
X730250Y538480D02*
X745485D01*
Y530863D01*
X742946Y528323D01*
X737868D01*
X735328Y530863D01*
Y538480D01*
Y533402D02*
X730250Y528323D01*
Y515627D02*
X745485D01*
X737868Y523245D01*
Y513088D01*
X552450Y404930D02*
X567685D01*
Y397313D01*
X565146Y394773D01*
X560067D01*
X557528Y397313D01*
Y404930D01*
Y399852D02*
X552450Y394773D01*
X565146Y389695D02*
X567685Y387156D01*
Y382077D01*
X565146Y379538D01*
X562607D01*
X560067Y382077D01*
Y384617D01*
Y382077D01*
X557528Y379538D01*
X554989D01*
X552450Y382077D01*
Y387156D01*
X554989Y389695D01*
X343662Y560832D02*
Y576067D01*
X351279D01*
X353819Y573528D01*
Y568450D01*
X351279Y565910D01*
X343662D01*
X348740D02*
X353819Y560832D01*
X369054D02*
X358897D01*
X369054Y570989D01*
Y573528D01*
X366515Y576067D01*
X361436D01*
X358897Y573528D01*
X424380Y458200D02*
Y473435D01*
X431997D01*
X434537Y470896D01*
Y465817D01*
X431997Y463278D01*
X424380D01*
X429458D02*
X434537Y458200D01*
X439615D02*
X444693D01*
X442154D01*
Y473435D01*
X439615Y470896D01*
X800101Y368297D02*
X789944D01*
X787405Y365757D01*
Y360679D01*
X789944Y358140D01*
X800101D01*
X802640Y360679D01*
Y365757D01*
X797562Y363218D02*
X802640Y368297D01*
Y365757D02*
X800101Y368297D01*
X802640Y383532D02*
Y373375D01*
X792483Y383532D01*
X789944D01*
X787405Y380993D01*
Y375914D01*
X789944Y373375D01*
X792477Y575309D02*
Y585466D01*
X789938Y588005D01*
X784859D01*
X782320Y585466D01*
Y575309D01*
X784859Y572770D01*
X789938D01*
X787398Y577848D02*
X792477Y572770D01*
X789938D02*
X792477Y575309D01*
X797555Y572770D02*
X802633D01*
X800094D01*
Y588005D01*
X797555Y585466D01*
X603255Y570227D02*
Y565148D01*
Y567687D01*
X615951D01*
X618490Y565148D01*
Y562609D01*
X615951Y560070D01*
X618490Y585462D02*
Y575305D01*
X608333Y585462D01*
X605794D01*
X603255Y582923D01*
Y577844D01*
X605794Y575305D01*
X351787Y339085D02*
X346708D01*
X349248D01*
Y326389D01*
X346708Y323850D01*
X344169D01*
X341630Y326389D01*
X356865Y323850D02*
X361943D01*
X359404D01*
Y339085D01*
X356865Y336546D01*
X297180Y547365D02*
Y532130D01*
X304797D01*
X307337Y534669D01*
Y544826D01*
X304797Y547365D01*
X297180D01*
X322572Y532130D02*
X312415D01*
X322572Y542287D01*
Y544826D01*
X320033Y547365D01*
X314954D01*
X312415Y544826D01*
X383540Y448305D02*
Y433070D01*
X391157D01*
X393697Y435609D01*
Y445766D01*
X391157Y448305D01*
X383540D01*
X398775Y433070D02*
X403853D01*
X401314D01*
Y448305D01*
X398775Y445766D01*
X551184Y435607D02*
X548645Y433068D01*
Y427989D01*
X551184Y425450D01*
X561341D01*
X563880Y427989D01*
Y433068D01*
X561341Y435607D01*
X563880Y450842D02*
Y440685D01*
X553723Y450842D01*
X551184D01*
X548645Y448303D01*
Y443224D01*
X551184Y440685D01*
X380997Y312426D02*
X378457Y314965D01*
X373379D01*
X370840Y312426D01*
Y302269D01*
X373379Y299730D01*
X378457D01*
X380997Y302269D01*
X386075Y299730D02*
X391153D01*
X388614D01*
Y314965D01*
X386075Y312426D01*
D12*
X929896Y401077D02*
X927356Y403616D01*
Y408695D01*
X929896Y411234D01*
X932435D01*
X934974Y408695D01*
Y406155D01*
Y408695D01*
X937513Y411234D01*
X940052D01*
X942591Y408695D01*
Y403616D01*
X940052Y401077D01*
X927356Y416312D02*
Y426469D01*
X929896D01*
X940052Y416312D01*
X942591D01*
Y431547D02*
X940052D01*
Y434086D01*
X942591D01*
Y431547D01*
X929896Y444243D02*
X927356Y446782D01*
Y451861D01*
X929896Y454400D01*
X940052D01*
X942591Y451861D01*
Y446782D01*
X940052Y444243D01*
X929896D01*
Y459478D02*
X927356Y462017D01*
Y467096D01*
X929896Y469635D01*
X932435D01*
X934974Y467096D01*
X937513Y469635D01*
X940052D01*
X942591Y467096D01*
Y462017D01*
X940052Y459478D01*
X937513D01*
X934974Y462017D01*
X932435Y459478D01*
X929896D01*
X934974Y462017D02*
Y467096D01*
X555378Y225804D02*
X550300Y223264D01*
X545221Y218186D01*
Y213108D01*
X547760Y210569D01*
X552839D01*
X555378Y213108D01*
Y215647D01*
X552839Y218186D01*
X545221D01*
X570613Y225804D02*
X560456D01*
Y218186D01*
X565535Y220725D01*
X568074D01*
X570613Y218186D01*
Y213108D01*
X568074Y210569D01*
X562995D01*
X560456Y213108D01*
X575691Y210569D02*
Y213108D01*
X578231D01*
Y210569D01*
X575691D01*
X596005D02*
Y225804D01*
X588387Y218186D01*
X598544D01*
X603622Y210569D02*
X608701D01*
X606162D01*
Y225804D01*
X603622Y223264D01*
M02*
