G04*
G04 #@! TF.GenerationSoftware,Altium Limited,Altium Designer,20.0.2 (26)*
G04*
G04 Layer_Physical_Order=2*
G04 Layer_Color=16711680*
%FSLAX44Y44*%
%MOMM*%
G71*
G01*
G75*
%ADD25O,2.5000X1.8000*%
%ADD26R,2.5000X1.8000*%
%ADD27C,3.0000*%
%ADD28R,3.0000X3.0000*%
%ADD29C,2.0000*%
%ADD30R,3.0000X4.0000*%
%ADD31R,4.0000X3.0000*%
%ADD32O,1.8000X2.5000*%
%ADD33R,1.8000X2.5000*%
%ADD34R,2.0000X2.5000*%
%ADD35O,2.0000X2.5000*%
%ADD36C,6.0000*%
%ADD37C,1.0000*%
%ADD38C,2.0000*%
D25*
X713730Y356870D02*
D03*
Y382270D02*
D03*
Y407670D02*
D03*
Y433070D02*
D03*
Y458470D02*
D03*
Y483870D02*
D03*
Y509270D02*
D03*
X633730Y356870D02*
D03*
Y382270D02*
D03*
Y407670D02*
D03*
Y433070D02*
D03*
Y458470D02*
D03*
Y483870D02*
D03*
X828040Y524510D02*
D03*
Y551510D02*
D03*
X829310Y342570D02*
D03*
Y315570D02*
D03*
D26*
X633730Y509270D02*
D03*
X828040Y578510D02*
D03*
X829310Y369570D02*
D03*
D27*
X467360Y309890D02*
D03*
D28*
Y389890D02*
D03*
D29*
X591820Y444500D02*
D03*
Y484500D02*
D03*
X534670Y464550D02*
D03*
X458670D02*
D03*
X354330Y470100D02*
D03*
Y546100D02*
D03*
X590550Y335280D02*
D03*
Y411280D02*
D03*
X764540Y505660D02*
D03*
Y581660D02*
D03*
X752040Y433070D02*
D03*
X828040D02*
D03*
X389890Y561550D02*
D03*
Y463550D02*
D03*
D30*
X467690Y549910D02*
D03*
X517690D02*
D03*
X567690D02*
D03*
D31*
X327660Y371640D02*
D03*
Y421640D02*
D03*
D32*
X292100Y497840D02*
D03*
D33*
X317500D02*
D03*
D34*
X593090Y299720D02*
D03*
D35*
X618490D02*
D03*
X643890D02*
D03*
D36*
X755650Y335280D02*
D03*
X316230Y295910D02*
D03*
D37*
X547370Y487680D02*
X557293Y477757D01*
X520700Y487680D02*
X547370D01*
X511810Y478790D02*
X520700Y487680D01*
X356870Y543560D02*
X374477Y561167D01*
X439690Y464550D02*
X458670D01*
X389890Y514350D02*
X439690Y464550D01*
X535940Y403860D02*
Y464550D01*
X557293Y406637D02*
Y477757D01*
X511810Y393700D02*
Y478790D01*
X535940Y403860D02*
X565150Y374650D01*
X511810Y393700D02*
X552450Y353060D01*
X557293Y406637D02*
X570230Y393700D01*
X788670Y524510D02*
X828040D01*
X784860Y528320D02*
X788670Y524510D01*
X755650Y528320D02*
X784860D01*
X715261Y460001D02*
X733282D01*
X739140Y465859D01*
Y511810D01*
X755650Y528320D01*
X713730Y458470D02*
X715261Y460001D01*
X764540Y505460D02*
X772160Y497840D01*
Y422910D02*
Y497840D01*
X349450Y469900D02*
X354330Y465020D01*
X338940Y469900D02*
X349450D01*
X599440Y300990D02*
X618490D01*
X592203Y308227D02*
X599440Y300990D01*
X618490D02*
Y307340D01*
X592203Y308227D02*
Y331287D01*
X713730Y280680D02*
X716280Y278130D01*
X612820Y400730D02*
Y444601D01*
X605790Y393700D02*
X612820Y400730D01*
X570230Y393700D02*
X605790D01*
X565150Y374650D02*
X626110D01*
X552450Y353060D02*
X607020D01*
X626110Y374650D02*
X633730Y382270D01*
X607020Y353060D02*
X643890Y316190D01*
X317500Y491340D02*
X338940Y469900D01*
X588210Y417630D02*
X590550D01*
X591820Y484500D02*
X615590Y508270D01*
X632730D01*
X633730Y509270D01*
X591820Y444500D02*
X591921Y444601D01*
X612820D01*
X626689Y458470D01*
X633730D01*
X591820Y331670D02*
X592203Y331287D01*
X713730Y280680D02*
Y356870D01*
X756920Y407670D02*
X772160Y422910D01*
X713730Y407670D02*
X756920D01*
X752040Y433070D02*
X753310Y431800D01*
X713730Y433070D02*
X752040D01*
X829310Y369570D02*
Y431800D01*
X764540Y581660D02*
X819390D01*
X822540Y578510D01*
X828040D01*
X764540Y505460D02*
Y505660D01*
X567690Y549910D02*
X568020Y550240D01*
X571500Y451342D02*
X582438Y462280D01*
X571500Y434340D02*
Y451342D01*
X582438Y462280D02*
X605640D01*
X571500Y434340D02*
X588210Y417630D01*
X643890Y299720D02*
Y316190D01*
X627230Y483870D02*
X633730D01*
X605640Y462280D02*
X627230Y483870D01*
X389890Y514350D02*
Y561550D01*
X633730Y433070D02*
X657860D01*
X665480Y440690D01*
Y488950D01*
X685800Y509270D02*
X713730D01*
X665480Y488950D02*
X685800Y509270D01*
X633730Y382270D02*
Y407670D01*
Y433070D01*
X374477Y561167D02*
X389507D01*
X389890Y561550D01*
X317500Y491340D02*
Y497840D01*
X292100Y402200D02*
Y497840D01*
Y402200D02*
X322660Y371640D01*
X327660D01*
X681990Y356870D02*
X713730D01*
X633730D02*
X681990D01*
X683260Y358140D02*
Y452120D01*
X681990Y356870D02*
X683260Y358140D01*
X689610Y458470D02*
X713730D01*
X683260Y452120D02*
X689610Y458470D01*
X713730Y356870D02*
Y382270D01*
X389890Y421640D02*
Y463550D01*
D38*
X487680Y490220D02*
X517690Y520230D01*
X487680Y427990D02*
Y490220D01*
X481330Y421640D02*
X487680Y427990D01*
X517690Y520230D02*
Y549910D01*
X828040Y506352D02*
Y524510D01*
X799019Y477331D02*
X828040Y506352D01*
X799019Y315570D02*
Y477331D01*
Y310069D02*
Y315570D01*
X759460Y270510D02*
X799019Y310069D01*
X563880Y270510D02*
X759460D01*
X524500Y309890D02*
X563880Y270510D01*
X467360Y309890D02*
X524500D01*
X500218Y607060D02*
X857250D01*
X890270Y359410D02*
Y574040D01*
X857250Y607060D02*
X890270Y574040D01*
X467690Y574532D02*
X500218Y607060D01*
X799019Y315570D02*
X829310D01*
X873430Y342570D02*
X890270Y359410D01*
X829310Y342570D02*
X873430D01*
X568020Y550240D02*
X825500D01*
X467690Y549910D02*
Y574532D01*
X405610Y371640D02*
X467360Y309890D01*
X327660Y371640D02*
X405610D01*
X389890Y421640D02*
X467360D01*
X327660D02*
X389890D01*
X467360D02*
X481330D01*
X467360Y389890D02*
Y421640D01*
M02*
