G04*
G04 #@! TF.GenerationSoftware,Altium Limited,Altium Designer,20.0.2 (26)*
G04*
G04 Layer_Color=2752767*
%FSLAX44Y44*%
%MOMM*%
G71*
G01*
G75*
%ADD39C,0.0508*%
%ADD40C,0.0677*%
D39*
X711698Y354838D02*
Y358902D01*
X715762D01*
Y354838D01*
X711698D01*
Y380238D02*
Y384302D01*
X715762D01*
Y380238D01*
X711698D01*
Y405638D02*
Y409702D01*
X715762D01*
Y405638D01*
X711698D01*
Y431038D02*
Y435102D01*
X715762D01*
Y431038D01*
X711698D01*
Y456438D02*
Y460502D01*
X715762D01*
Y456438D01*
X711698D01*
Y481838D02*
Y485902D01*
X715762D01*
Y481838D01*
X711698D01*
Y507238D02*
Y511302D01*
X715762D01*
Y507238D01*
X711698D01*
X631698Y354838D02*
Y358902D01*
X635762D01*
Y354838D01*
X631698D01*
Y380238D02*
Y384302D01*
X635762D01*
Y380238D01*
X631698D01*
Y405638D02*
Y409702D01*
X635762D01*
Y405638D01*
X631698D01*
Y431038D02*
Y435102D01*
X635762D01*
Y431038D01*
X631698D01*
Y456438D02*
Y460502D01*
X635762D01*
Y456438D01*
X631698D01*
Y481838D02*
Y485902D01*
X635762D01*
Y481838D01*
X631698D01*
Y507238D02*
Y511302D01*
X635762D01*
Y507238D01*
X631698D01*
X465328Y307858D02*
Y311922D01*
X469392D01*
Y307858D01*
X465328D01*
Y387858D02*
Y391922D01*
X469392D01*
Y387858D01*
X465328D01*
X589788Y442468D02*
Y446532D01*
X593852D01*
Y442468D01*
X589788D01*
Y482468D02*
Y486532D01*
X593852D01*
Y482468D01*
X589788D01*
X465658Y547878D02*
Y551942D01*
X469722D01*
Y547878D01*
X465658D01*
X515658D02*
Y551942D01*
X519722D01*
Y547878D01*
X515658D01*
X565658D02*
Y551942D01*
X569722D01*
Y547878D01*
X565658D01*
X325628Y369608D02*
Y373672D01*
X329692D01*
Y369608D01*
X325628D01*
Y419608D02*
Y423672D01*
X329692D01*
Y419608D01*
X325628D01*
X290068Y495808D02*
Y499872D01*
X294132D01*
Y495808D01*
X290068D01*
X315468D02*
Y499872D01*
X319532D01*
Y495808D01*
X315468D01*
X532638Y462518D02*
Y466582D01*
X536702D01*
Y462518D01*
X532638D01*
X456638D02*
Y466582D01*
X460702D01*
Y462518D01*
X456638D01*
X352298Y468068D02*
Y472132D01*
X356362D01*
Y468068D01*
X352298D01*
Y544068D02*
Y548132D01*
X356362D01*
Y544068D01*
X352298D01*
X588518Y333248D02*
Y337312D01*
X592582D01*
Y333248D01*
X588518D01*
Y409248D02*
Y413312D01*
X592582D01*
Y409248D01*
X588518D01*
X762508Y503628D02*
Y507692D01*
X766572D01*
Y503628D01*
X762508D01*
Y579628D02*
Y583692D01*
X766572D01*
Y579628D01*
X762508D01*
X750008Y431038D02*
Y435102D01*
X754072D01*
Y431038D01*
X750008D01*
X826008D02*
Y435102D01*
X830072D01*
Y431038D01*
X826008D01*
Y522478D02*
Y526542D01*
X830072D01*
Y522478D01*
X826008D01*
Y549478D02*
Y553542D01*
X830072D01*
Y549478D01*
X826008D01*
Y576478D02*
Y580542D01*
X830072D01*
Y576478D01*
X826008D01*
X827278Y367538D02*
Y371602D01*
X831342D01*
Y367538D01*
X827278D01*
Y340538D02*
Y344602D01*
X831342D01*
Y340538D01*
X827278D01*
Y313538D02*
Y317602D01*
X831342D01*
Y313538D01*
X827278D01*
X387858Y559518D02*
Y563582D01*
X391922D01*
Y559518D01*
X387858D01*
Y461518D02*
Y465582D01*
X391922D01*
Y461518D01*
X387858D01*
X591058Y297688D02*
Y301752D01*
X595122D01*
Y297688D01*
X591058D01*
X616458D02*
Y301752D01*
X620522D01*
Y297688D01*
X616458D01*
X641858D02*
Y301752D01*
X645922D01*
Y297688D01*
X641858D01*
D40*
X757682Y335280D02*
G03*
X757682Y335280I-2032J0D01*
G01*
X318262Y295910D02*
G03*
X318262Y295910I-2032J0D01*
G01*
M02*
