G04*
G04 #@! TF.GenerationSoftware,Altium Limited,Altium Designer,20.0.2 (26)*
G04*
G04 Layer_Color=8388736*
%FSLAX44Y44*%
%MOMM*%
G71*
G01*
G75*
%ADD13O,2.7032X2.0032*%
%ADD14R,2.7032X2.0032*%
%ADD15C,3.2032*%
%ADD16R,3.2032X3.2032*%
%ADD17C,2.2032*%
%ADD18R,3.2032X4.2032*%
%ADD19R,4.2032X3.2032*%
%ADD20O,2.0032X2.7032*%
%ADD21R,2.0032X2.7032*%
%ADD22R,2.2032X2.7032*%
%ADD23O,2.2032X2.7032*%
%ADD24C,6.2032*%
D13*
X713730Y356870D02*
D03*
Y382270D02*
D03*
Y407670D02*
D03*
Y433070D02*
D03*
Y458470D02*
D03*
Y483870D02*
D03*
Y509270D02*
D03*
X633730Y356870D02*
D03*
Y382270D02*
D03*
Y407670D02*
D03*
Y433070D02*
D03*
Y458470D02*
D03*
Y483870D02*
D03*
X828040Y524510D02*
D03*
Y551510D02*
D03*
X829310Y342570D02*
D03*
Y315570D02*
D03*
D14*
X633730Y509270D02*
D03*
X828040Y578510D02*
D03*
X829310Y369570D02*
D03*
D15*
X467360Y309890D02*
D03*
D16*
Y389890D02*
D03*
D17*
X591820Y444500D02*
D03*
Y484500D02*
D03*
X534670Y464550D02*
D03*
X458670D02*
D03*
X354330Y470100D02*
D03*
Y546100D02*
D03*
X590550Y335280D02*
D03*
Y411280D02*
D03*
X764540Y505660D02*
D03*
Y581660D02*
D03*
X752040Y433070D02*
D03*
X828040D02*
D03*
X389890Y561550D02*
D03*
Y463550D02*
D03*
D18*
X467690Y549910D02*
D03*
X517690D02*
D03*
X567690D02*
D03*
D19*
X327660Y371640D02*
D03*
Y421640D02*
D03*
D20*
X292100Y497840D02*
D03*
D21*
X317500D02*
D03*
D22*
X593090Y299720D02*
D03*
D23*
X618490D02*
D03*
X643890D02*
D03*
D24*
X755650Y335280D02*
D03*
X316230Y295910D02*
D03*
M02*
