G04*
G04 #@! TF.GenerationSoftware,Altium Limited,Altium Designer,20.0.2 (26)*
G04*
G04 Layer_Color=128*
%FSLAX44Y44*%
%MOMM*%
G71*
G01*
G75*
%ADD39C,0.0508*%
D39*
X708730Y356870D02*
X718730D01*
X713730Y351870D02*
Y361870D01*
X708730Y382270D02*
X718730D01*
X713730Y377270D02*
Y387270D01*
X708730Y407670D02*
X718730D01*
X713730Y402670D02*
Y412670D01*
X708730Y433070D02*
X718730D01*
X713730Y428070D02*
Y438070D01*
X708730Y458470D02*
X718730D01*
X713730Y453470D02*
Y463470D01*
X708730Y483870D02*
X718730D01*
X713730Y478870D02*
Y488870D01*
X708730Y509270D02*
X718730D01*
X713730Y504270D02*
Y514270D01*
X628730Y356870D02*
X638730D01*
X633730Y351870D02*
Y361870D01*
X628730Y382270D02*
X638730D01*
X633730Y377270D02*
Y387270D01*
X628730Y407670D02*
X638730D01*
X633730Y402670D02*
Y412670D01*
X628730Y433070D02*
X638730D01*
X633730Y428070D02*
Y438070D01*
X628730Y458470D02*
X638730D01*
X633730Y453470D02*
Y463470D01*
X628730Y483870D02*
X638730D01*
X633730Y478870D02*
Y488870D01*
X628730Y509270D02*
X638730D01*
X633730Y504270D02*
Y514270D01*
X462360Y309890D02*
X472360D01*
X467360Y304890D02*
Y314890D01*
X462360Y389890D02*
X472360D01*
X467360Y384890D02*
Y394890D01*
X586820Y444500D02*
X596820D01*
X591820Y439500D02*
Y449500D01*
X586820Y484500D02*
X596820D01*
X591820Y479500D02*
Y489500D01*
X462690Y549910D02*
X472690D01*
X467690Y544910D02*
Y554910D01*
X512690Y549910D02*
X522690D01*
X517690Y544910D02*
Y554910D01*
X562690Y549910D02*
X572690D01*
X567690Y544910D02*
Y554910D01*
X322660Y371640D02*
X332660D01*
X327660Y366640D02*
Y376640D01*
X322660Y421640D02*
X332660D01*
X327660Y416640D02*
Y426640D01*
X287100Y497840D02*
X297100D01*
X292100Y492840D02*
Y502840D01*
X312500Y497840D02*
X322500D01*
X317500Y492840D02*
Y502840D01*
X529670Y464550D02*
X539670D01*
X534670Y459550D02*
Y469550D01*
X453670Y464550D02*
X463670D01*
X458670Y459550D02*
Y469550D01*
X349330Y470100D02*
X359330D01*
X354330Y465100D02*
Y475100D01*
X349330Y546100D02*
X359330D01*
X354330Y541100D02*
Y551100D01*
X585550Y335280D02*
X595550D01*
X590550Y330280D02*
Y340280D01*
X585550Y411280D02*
X595550D01*
X590550Y406280D02*
Y416280D01*
X759540Y505660D02*
X769540D01*
X764540Y500660D02*
Y510660D01*
X759540Y581660D02*
X769540D01*
X764540Y576660D02*
Y586660D01*
X747040Y433070D02*
X757040D01*
X752040Y428070D02*
Y438070D01*
X823040Y433070D02*
X833040D01*
X828040Y428070D02*
Y438070D01*
X823040Y524510D02*
X833040D01*
X828040Y519510D02*
Y529510D01*
X823040Y551510D02*
X833040D01*
X828040Y546510D02*
Y556510D01*
X823040Y578510D02*
X833040D01*
X828040Y573510D02*
Y583510D01*
X824310Y369570D02*
X834310D01*
X829310Y364570D02*
Y374570D01*
X824310Y342570D02*
X834310D01*
X829310Y337570D02*
Y347570D01*
X824310Y315570D02*
X834310D01*
X829310Y310570D02*
Y320570D01*
X384890Y561550D02*
X394890D01*
X389890Y556550D02*
Y566550D01*
X384890Y463550D02*
X394890D01*
X389890Y458550D02*
Y468550D01*
X588090Y299720D02*
X598090D01*
X593090Y294720D02*
Y304720D01*
X613490Y299720D02*
X623490D01*
X618490Y294720D02*
Y304720D01*
X638890Y299720D02*
X648890D01*
X643890Y294720D02*
Y304720D01*
X740650Y335280D02*
X770650D01*
X755650Y320280D02*
Y350280D01*
X301230Y295910D02*
X331230D01*
X316230Y280910D02*
Y310910D01*
M02*
